<?xml version="1.0" encoding="UTF-8" standalone="no"?>
<!-- Created with Inkscape (http://www.inkscape.org/) -->

<svg
   xmlns:dc="http://purl.org/dc/elements/1.1/"
   xmlns:cc="http://creativecommons.org/ns#"
   xmlns:rdf="http://www.w3.org/1999/02/22-rdf-syntax-ns#"
   xmlns:svg="http://www.w3.org/2000/svg"
   xmlns="http://www.w3.org/2000/svg"
   xmlns:sodipodi="http://sodipodi.sourceforge.net/DTD/sodipodi-0.dtd"
   xmlns:inkscape="http://www.inkscape.org/namespaces/inkscape"
   width="210mm"
   height="297mm"
   viewBox="0 0 210 297"
   version="1.1"
   id="svg8"
   inkscape:version="0.92.2 5c3e80d, 2017-08-06"
   sodipodi:docname="back.svg">
  <defs
     id="defs2" />
  <sodipodi:namedview
     id="base"
     pagecolor="#ffffff"
     bordercolor="#666666"
     borderopacity="1.0"
     inkscape:pageopacity="0.0"
     inkscape:pageshadow="2"
     inkscape:zoom="0.98994949"
     inkscape:cx="337.12533"
     inkscape:cy="808.31841"
     inkscape:document-units="mm"
     inkscape:current-layer="layer1"
     showgrid="false"
     inkscape:window-width="1920"
     inkscape:window-height="983"
     inkscape:window-x="0"
     inkscape:window-y="27"
     inkscape:window-maximized="1" />
  <metadata
     id="metadata5">
    <rdf:RDF>
      <cc:Work
         rdf:about="">
        <dc:format>image/svg+xml</dc:format>
        <dc:type
           rdf:resource="http://purl.org/dc/dcmitype/StillImage" />
        <dc:title></dc:title>
      </cc:Work>
    </rdf:RDF>
  </metadata>
  <g
     inkscape:label="Layer 1"
     inkscape:groupmode="layer"
     id="layer1">
    <rect
       style="fill:#bfbfbf;fill-opacity:1;stroke:none;stroke-width:3.70153904;stroke-miterlimit:4;stroke-dasharray:none;stroke-opacity:1"
       id="rect4504"
       width="172.03139"
       height="132.03557"
       x="22.589001"
       y="5.8857169"
       ry="5.4978185"
       inkscape:export-xdpi="96"
       inkscape:export-ydpi="96" />
    <rect
       ry="5.4545922"
       y="5.9709029"
       x="23.328827"
       height="130.99753"
       width="169.78612"
       id="rect4540"
       style="fill:#f6f6f6;fill-opacity:1;stroke:#616161;stroke-width:0.50136936;stroke-miterlimit:4;stroke-dasharray:none;stroke-opacity:0.94984328"
       inkscape:export-xdpi="96"
       inkscape:export-ydpi="96" />
    <path
       inkscape:connector-curvature="0"
       style="font-style:normal;font-weight:normal;font-size:40px;line-height:125%;font-family:Sans;letter-spacing:0px;word-spacing:0px;fill:#6c6c6c;fill-opacity:1;stroke:#000000;stroke-width:0.04464626;stroke-opacity:1"
       d="m 82.8668,121.32974 c -0.55808,1e-5 -1.00628,0.27521 -1.34636,0.82456 -0.15406,0.2587 -0.2845,0.5235 -0.39205,0.79527 -0.10755,0.27178 -0.2187,0.60773 -0.33206,1.00593 -0.0814,0.28777 -0.18474,0.71528 -0.30973,1.28498 -0.0523,0.24416 -0.18149,0.86433 -0.38786,1.8584 -0.0349,0.16859 -0.0723,0.35334 -0.11301,0.55389 -0.0407,0.20056 -0.0717,0.35293 -0.0935,0.45902 -0.0218,0.1061 -0.0386,0.18626 -0.0502,0.23858 -0.28195,0.40693 -0.48088,0.66783 -0.59715,0.7841 -0.0476,0.0508 -0.1082,0.10591 -0.17998,0.16603 0.12912,-0.37949 0.19393,-0.759 0.19393,-1.13848 v -0.0865 c -0.0349,-0.63656 -0.22614,-1.12883 -0.57203,-1.47473 -0.35171,-0.3517 -0.76759,-0.52738 -1.25009,-0.52738 -0.4767,0 -0.93792,0.17057 -1.38264,0.51064 -0.36061,0.26869 -0.66021,0.63353 -0.89851,1.09523 -0.0599,-0.13059 -0.14167,-0.25499 -0.24695,-0.37531 -0.24416,-0.27903 -0.56064,-0.4961 -0.95013,-0.65016 -0.74701,-0.29938 -1.44077,-0.44925 -2.08023,-0.44925 -0.0116,0 -0.0388,0.003 -0.0809,0.007 -0.0422,0.004 -0.0679,0.006 -0.0795,0.006 0.49994,-0.17149 0.89908,-0.42855 1.19847,-0.77154 0.30229,-0.34589 0.45343,-0.72306 0.45344,-1.1329 -1e-5,-0.12207 -0.0116,-0.22799 -0.0349,-0.31811 -0.13371,-0.43889 -0.42054,-0.80839 -0.85944,-1.10778 -0.44763,-0.30519 -0.92816,-0.53261 -1.44263,-0.68086 -0.35462,-0.10172 -0.74865,-0.15206 -1.18173,-0.15207 -0.71504,1e-5 -1.42299,0.12534 -2.12349,0.37531 -0.68888,0.23835 -1.19138,0.54704 -1.50821,0.9278 -0.29357,0.33718 -0.44088,0.6654 -0.44088,0.98222 0,0.16859 0.0413,0.32869 0.12417,0.48274 0.0828,0.15406 0.19138,0.28846 0.32508,0.40181 0.20056,0.16569 0.43054,0.30904 0.68923,0.43112 0.18021,0.0465 0.31066,0.0698 0.39205,0.0698 0.19765,0 0.34624,-0.0736 0.44507,-0.22184 0.0727,-0.0814 0.10882,-0.17439 0.10882,-0.27904 0,-0.11044 -0.062,-0.19567 -0.18695,-0.25671 -0.3924,-0.18602 -0.58878,-0.37728 -0.58878,-0.57203 0,-0.19184 0.15115,-0.40623 0.45344,-0.64458 0.48251,-0.37496 1.17487,-0.56226 2.07884,-0.56227 0.76445,1e-5 1.33939,0.10465 1.72307,0.31392 0.52029,0.27614 0.77991,0.56413 0.77991,0.86642 0,0.0116 0,0.022 0,0.0307 0,0.15406 -0.0827,0.3259 -0.24834,0.51483 -0.17731,0.20347 -0.37752,0.37525 -0.60133,0.51622 -0.22382,0.14098 -0.41763,0.23149 -0.5804,0.26927 -0.0552,0.0146 -0.23742,0.0545 -0.54552,0.12139 l -0.3488,0.0656 -0.19533,0.0614 c 0.40112,-0.77607 0.63621,-1.33031 0.70597,-1.66168 0.006,-0.0116 0.008,-0.0374 0.008,-0.0781 0,-0.14533 -0.071,-0.27583 -0.21486,-0.39065 -0.14388,-0.11481 -0.30543,-0.17161 -0.48274,-0.17161 h -0.0433 c -0.39821,0.0262 -0.69923,0.27544 -0.90269,0.74922 -0.12499,0.29648 -0.38845,0.87142 -0.79247,1.72306 -0.45344,0.98246 -0.76352,1.66575 -0.9292,2.05234 -0.24125,0.55226 -0.41437,1.00838 -0.51901,1.36589 -0.0668,0.2616 -0.10046,0.46181 -0.10046,0.60133 0,0.30811 0.11627,0.56134 0.3488,0.75899 0.36624,0.31392 0.90234,0.47018 1.60866,0.47018 0.1744,0 0.46123,-0.0142 0.85944,-0.0433 1.62191,-0.10755 2.96025,-0.36985 4.01538,-0.7855 0.55807,-0.2209 1.0154,-0.50506 1.37147,-0.85386 0.0685,-0.0671 0.1327,-0.13658 0.19254,-0.20788 0.023,0.43199 0.13922,0.80108 0.3488,1.10639 0.24125,0.35171 0.54227,0.57773 0.90269,0.67946 0.21509,0.0523 0.42437,0.0781 0.62784,0.0781 0.49315,0 0.94414,-0.15611 1.35334,-0.46878 0.0622,0.0332 0.13741,0.0502 0.22742,0.0502 0.2616,0 0.57424,-0.12789 0.93757,-0.38368 l 0.57203,-0.44925 c -0.0116,0.10464 -0.0181,0.19254 -0.0181,0.2623 0,0.19765 0.0336,0.37984 0.10045,0.54552 0.0901,0.19184 0.17928,0.31322 0.26648,0.36554 0.0698,0.0436 0.25056,0.0785 0.54413,0.10464 h 0.16184 c 0.56099,0 1.09965,-0.15371 1.61703,-0.46181 0.32555,-0.20928 0.48832,-0.44832 0.48832,-0.71574 0,-0.0112 -6.7e-4,-0.0231 -0.001,-0.0349 l 0.0837,-0.0656 c -0.0116,0.10464 -0.0181,0.19254 -0.0181,0.2623 0,0.19765 0.0336,0.37984 0.10046,0.54552 0.0901,0.19184 0.17928,0.31322 0.26648,0.36554 0.0698,0.0436 0.25055,0.0785 0.54413,0.10464 h 0.16184 c 0.56098,0 1.09964,-0.15371 1.61703,-0.46181 0.0392,-0.0252 0.0758,-0.0507 0.11022,-0.0767 0.16122,-0.0623 0.33323,-0.15914 0.51762,-0.2902 0.66562,-0.4825 1.18754,-0.94757 1.56541,-1.39519 -0.14824,0.22091 -0.24381,0.5504 -0.28741,0.9864 l -0.004,0.0433 c -0.003,0.032 -0.004,0.0552 -0.004,0.0698 0,0.38368 0.14719,0.65493 0.44367,0.8148 0.28776,0.16568 0.58877,0.24834 0.90269,0.24834 0.24997,0 0.59877,-0.0762 1.0464,-0.23021 0.18439,-0.0648 0.36613,-0.16943 0.54412,-0.31113 0.27619,0.37233 0.83805,0.55948 1.68679,0.55948 0.90978,0 1.74178,-0.18219 2.49461,-0.54552 0.2645,-0.13371 0.57063,-0.38298 0.91943,-0.74922 0.3517,-0.37787 0.52738,-0.65691 0.52739,-0.83712 -10e-6,-0.0785 -0.0646,-0.14574 -0.19394,-0.19951 -0.12935,-0.0538 -0.26241,-0.0795 -0.39902,-0.0795 -0.11918,0 -0.20185,0.0233 -0.24835,0.0698 -0.27904,0.27614 -0.5904,0.49826 -0.93338,0.6683 -0.34299,0.17004 -0.77829,0.32636 -1.3073,0.46878 -0.12208,0.0291 -0.24486,0.0446 -0.36694,0.0446 -0.18312,0 -0.33682,-0.0232 -0.46181,-0.0698 -0.12498,-0.0465 -0.18695,-0.10859 -0.18695,-0.18416 0,-0.0233 0.009,-0.0516 0.0265,-0.0865 0.0174,-0.0291 0.042,-0.0549 0.0739,-0.0781 0.032,-0.0232 0.072,-0.0466 0.12138,-0.0684 0.0494,-0.0218 0.0985,-0.0412 0.1465,-0.0572 0.048,-0.016 0.1112,-0.0327 0.19114,-0.0516 0.0799,-0.0189 0.14969,-0.0344 0.20928,-0.046 0.0596,-0.0116 0.14225,-0.0284 0.24834,-0.0516 0.10609,-0.0232 0.19533,-0.0427 0.26509,-0.0572 0.32845,-0.0785 0.61388,-0.18568 0.85804,-0.32229 0.11045,-0.0756 0.18027,-0.15179 0.20789,-0.22882 0.0276,-0.077 0.0405,-0.19462 0.0405,-0.35159 v -0.19532 c -10e-6,-0.11336 -0.0994,-0.18835 -0.29997,-0.22324 -0.27323,-0.0494 -0.57424,-0.0907 -0.90269,-0.12556 -0.36043,-0.0407 -0.67563,-0.0859 -0.94594,-0.13534 -0.23254,-0.0436 -0.3488,-0.0953 -0.3488,-0.15347 0,-0.0233 0.0193,-0.0465 0.06,-0.0698 0.18312,-0.0843 0.3924,-0.12556 0.62784,-0.12557 0.0465,1e-5 0.18997,0.0104 0.42832,0.0307 0.27322,0.0116 0.43728,0.0167 0.49251,0.0167 0.10754,0 0.25613,-0.0103 0.44506,-0.0307 l 0.4088,-0.0516 c 0.15695,-0.0174 0.27066,-0.0446 0.34042,-0.0795 0.16858,-0.0901 0.27973,-0.19985 0.33206,-0.33066 0.0203,-0.0843 0.0707,-0.24834 0.15208,-0.4925 0.10463,-0.31101 0.16404,-0.49064 0.17858,-0.53715 0.0465,-0.16277 0.0697,-0.26217 0.0698,-0.29997 0,-0.0232 -0.005,-0.0349 -0.0167,-0.0349 h -0.01 c -0.72667,0.23254 -1.39322,0.36555 -2.00071,0.40042 -0.32555,0.0204 -0.55552,0.041 -0.68922,0.0614 l -0.64877,0.0823 c -0.3052,0.032 -0.53518,0.0643 -0.68923,0.0963 -0.15696,0.0378 -0.33787,0.11011 -0.54133,0.21765 -0.20347,0.10755 -0.37787,0.24067 -0.5232,0.39763 -0.15405,0.16278 -0.23021,0.36299 -0.23021,0.60133 0,0.38368 0.17312,0.6769 0.51901,0.88037 0.16859,0.11045 0.50704,0.21253 1.01571,0.30554 l 0.10882,0.0265 h -0.008 c -0.24416,0.0872 -0.52843,0.25126 -0.85107,0.49251 -0.17149,0.12789 -0.31101,0.2777 -0.41856,0.45065 -0.001,0.002 -0.002,0.004 -0.003,0.006 -0.15228,0.0129 -0.34064,0.0851 -0.56644,0.21905 -0.2151,0.11917 -0.36753,0.17858 -0.45763,0.17858 -0.14243,0 -0.21347,-0.11103 -0.21346,-0.33485 0.061,-0.51157 0.20311,-1.06836 0.42693,-1.67005 0.24706,-0.67434 0.40204,-1.16009 0.46599,-1.45658 0.0116,-0.0814 0.0181,-0.13172 0.0181,-0.15208 0,-0.1773 -0.0594,-0.27938 -0.17858,-0.30554 -0.0959,-0.0291 -0.20452,-0.0433 -0.32369,-0.0433 -0.11046,0 -0.3481,0.0478 -0.71434,0.1437 l -0.12278,0.0516 c -0.093,0.0349 -0.18858,0.0995 -0.28741,0.19254 -0.0988,0.093 -0.16731,0.19638 -0.20509,0.30973 -0.13661,0.39531 -0.53192,0.93653 -1.18592,1.62541 -0.64237,0.67725 -1.13069,1.09325 -1.46495,1.2473 -0.0905,0.0441 -0.17245,0.0897 -0.24556,0.13673 -0.0666,0.0279 -0.13707,0.0606 -0.21625,0.0991 -0.29067,0.14243 -0.47797,0.22254 -0.56227,0.23997 -0.0174,0.003 -0.0368,0.005 -0.0586,0.008 -0.0218,0.003 -0.0386,0.006 -0.0502,0.007 -0.0116,0.002 -0.0207,0.001 -0.0265,0.001 -0.14824,0 -0.2309,-0.10464 -0.24834,-0.31392 v -0.29996 c 0,-0.28195 0.0413,-0.57785 0.12557,-0.88595 0.55517,-0.43891 1.10429,-1.06674 1.64493,-1.88352 0.54064,-0.80514 0.91525,-1.54017 1.12453,-2.2058 0.14823,-0.51157 0.22183,-1.00895 0.22184,-1.49147 -1e-5,-0.35169 -0.0426,-0.65782 -0.12836,-0.91943 -0.0857,-0.26159 -0.2201,-0.46959 -0.40321,-0.62365 -0.18313,-0.15405 -0.40787,-0.23287 -0.67528,-0.23579 -0.55808,1e-5 -1.00768,0.27521 -1.34776,0.82456 -0.15405,0.2587 -0.2845,0.5235 -0.39205,0.79526 -0.10755,0.27178 -0.2187,0.60773 -0.33205,1.00594 -0.0814,0.28776 -0.18475,0.71527 -0.30974,1.28497 -0.0523,0.24417 -0.18149,0.86433 -0.38786,1.8584 -0.0349,0.16859 -0.0723,0.35334 -0.11301,0.5539 -0.0407,0.20056 -0.0717,0.35293 -0.0935,0.45902 -0.0218,0.10609 -0.0386,0.18626 -0.0502,0.23857 -0.28195,0.40694 -0.48088,0.66784 -0.59715,0.7841 -0.12789,0.13662 -0.34368,0.30718 -0.64597,0.51065 -0.003,0 -0.0972,0.0529 -0.28323,0.16044 -0.0407,0.0204 -0.0923,0.054 -0.15626,0.0991 -0.0639,0.0451 -0.11045,0.0824 -0.13952,0.11441 -0.0528,0.0528 -0.0965,0.10625 -0.13115,0.15905 -0.1013,-0.0314 -0.15877,-0.13201 -0.173,-0.30276 v -0.29996 c 0,-0.28195 0.0413,-0.57785 0.12557,-0.88595 0.55516,-0.43891 1.10289,-1.06674 1.64354,-1.88352 0.54063,-0.80514 0.91664,-1.54017 1.12592,-2.2058 0.14823,-0.51156 0.22183,-1.00895 0.22184,-1.49146 -1e-5,-0.3517 -0.0426,-0.65783 -0.12836,-0.91944 -0.0858,-0.26159 -0.2201,-0.46959 -0.40321,-0.62365 -0.18313,-0.15404 -0.40927,-0.23287 -0.67667,-0.23579 z m -0.12975,1.56541 c 0.0901,1e-5 0.13917,0.11883 0.14789,0.35717 v 0.0265 c 0,0.45926 -0.12534,1.03024 -0.37531,1.7133 -0.25288,0.68598 -0.63656,1.3423 -1.15103,1.96723 l 0.75061,-3.1085 c 0.0436,-0.18311 0.13266,-0.38855 0.26928,-0.61528 0.14532,-0.22671 0.26554,-0.34042 0.35856,-0.34043 z m 3.24244,0 c 0.0901,1e-5 0.13916,0.11883 0.14789,0.35717 v 0.0265 c -1e-5,0.45926 -0.12534,1.03024 -0.37531,1.7133 -0.25288,0.68598 -0.63656,1.3423 -1.15104,1.96723 l 0.75062,-3.1085 c 0.0436,-0.18311 0.13405,-0.38855 0.27067,-0.61528 0.14533,-0.22671 0.26415,-0.34042 0.35717,-0.34043 z m 3.9498,0.95571 c -0.19766,1e-5 -0.36171,0.0452 -0.49251,0.13673 -0.1308,0.0916 -0.20184,0.21557 -0.21346,0.37252 v 0.0879 c -1e-5,0.26741 0.0839,0.51157 0.25253,0.73247 0.16858,0.22091 0.36751,0.33067 0.59714,0.33066 h 0.053 c 0.29066,-0.29066 0.4353,-0.63294 0.4353,-1.02825 0,-0.15986 -0.0272,-0.29427 -0.0809,-0.40182 -0.0538,-0.10754 -0.12348,-0.16695 -0.21067,-0.17859 -0.11627,-0.0349 -0.22998,-0.0516 -0.34043,-0.0516 z m -19.70296,3.11687 c 0.74701,0 1.43426,0.071 2.0621,0.21346 0.34589,0.0727 0.62109,0.18377 0.82456,0.33346 0.20346,0.14969 0.30415,0.32415 0.30415,0.5218 0,0.0116 -0.001,0.0232 -0.004,0.0363 -0.003,0.0131 -0.006,0.0312 -0.008,0.053 -0.003,0.0218 -0.005,0.0399 -0.008,0.0544 -0.11336,0.4767 -0.42089,0.85131 -0.92083,1.12453 -0.39821,0.22091 -0.92908,0.41984 -1.5947,0.59715 -0.20057,0.061 -0.46938,0.11138 -0.80364,0.15207 -0.41565,0.0494 -0.75794,0.0753 -1.02826,0.0753 -0.63074,0 -0.98605,-0.10208 -1.06453,-0.30554 -0.006,-0.0174 -0.008,-0.0536 -0.008,-0.10883 0,-0.40402 0.36042,-1.30578 1.08128,-2.70389 0.0174,0.0174 0.0381,0.0265 0.0614,0.0265 h 0.0307 c 0.23834,-0.0465 0.59749,-0.0698 1.07709,-0.0698 z m 7.19223,0.65016 c 0.012,-8.4e-4 0.0231,0 0.0349,0 0.16859,0 0.29648,0.0981 0.38368,0.29578 0.0378,0.10755 0.0572,0.23033 0.0572,0.36694 0,0.38659 -0.10859,0.76375 -0.32368,1.1329 -0.20638,0.36914 -0.48274,0.55389 -0.83154,0.55389 -0.006,0 -0.0614,-0.007 -0.16603,-0.0181 -0.23834,-0.0785 -0.35717,-0.2838 -0.35717,-0.61807 0,-0.3052 0.0594,-0.57005 0.17859,-0.79387 0.0552,-0.15986 0.1973,-0.34972 0.42693,-0.57063 0.218,-0.218 0.41746,-0.33517 0.59714,-0.3488 z"
       id="flowRoot2985"
       inkscape:export-xdpi="96"
       inkscape:export-ydpi="96" />
  </g>
</svg>
