<?xml version="1.0" encoding="UTF-8" standalone="no"?>
<!-- Created with Inkscape (http://www.inkscape.org/) -->

<svg
   xmlns:dc="http://purl.org/dc/elements/1.1/"
   xmlns:cc="http://creativecommons.org/ns#"
   xmlns:rdf="http://www.w3.org/1999/02/22-rdf-syntax-ns#"
   xmlns:svg="http://www.w3.org/2000/svg"
   xmlns="http://www.w3.org/2000/svg"
   xmlns:sodipodi="http://sodipodi.sourceforge.net/DTD/sodipodi-0.dtd"
   xmlns:inkscape="http://www.inkscape.org/namespaces/inkscape"
   width="210mm"
   height="297mm"
   viewBox="0 0 210 297"
   version="1.1"
   id="svg8"
   inkscape:version="0.92.2 5c3e80d, 2017-08-06"
   sodipodi:docname="back.svg">
  <defs
     id="defs2" />
  <sodipodi:namedview
     id="base"
     pagecolor="#ffffff"
     bordercolor="#666666"
     borderopacity="1.0"
     inkscape:pageopacity="0.0"
     inkscape:pageshadow="2"
     inkscape:zoom="1.4"
     inkscape:cx="172.42012"
     inkscape:cy="845.73682"
     inkscape:document-units="mm"
     inkscape:current-layer="layer1"
     showgrid="false"
     inkscape:window-width="1920"
     inkscape:window-height="983"
     inkscape:window-x="0"
     inkscape:window-y="27"
     inkscape:window-maximized="1" />
  <metadata
     id="metadata5">
    <rdf:RDF>
      <cc:Work
         rdf:about="">
        <dc:format>image/svg+xml</dc:format>
        <dc:type
           rdf:resource="http://purl.org/dc/dcmitype/StillImage" />
        <dc:title />
      </cc:Work>
    </rdf:RDF>
  </metadata>
  <g
     inkscape:label="Layer 1"
     inkscape:groupmode="layer"
     id="layer1">
    <rect
       style="fill:#bfbfbf;fill-opacity:1;stroke:none;stroke-width:3.70153904;stroke-miterlimit:4;stroke-dasharray:none;stroke-opacity:1"
       id="rect4504"
       width="172.03139"
       height="132.03557"
       x="22.589001"
       y="5.8857169"
       ry="5.4978185"
       inkscape:export-xdpi="96"
       inkscape:export-ydpi="96"
       inkscape:export-filename="/home/rajan/mod-plugins-deploy/bolliedelayxt.lv2/modgui/background.png" />
    <rect
       ry="5.4545922"
       y="5.9709029"
       x="23.328827"
       height="130.99753"
       width="169.78612"
       id="rect4540"
       style="fill:#f6f6f6;fill-opacity:1;stroke:#616161;stroke-width:0.50136936;stroke-miterlimit:4;stroke-dasharray:none;stroke-opacity:0.94984328"
       inkscape:export-xdpi="96"
       inkscape:export-ydpi="96"
       inkscape:export-filename="/home/rajan/mod-plugins-deploy/bolliedelayxt.lv2/modgui/background.png" />
    <path
       inkscape:connector-curvature="0"
       style="font-style:normal;font-weight:normal;font-size:40px;line-height:125%;font-family:Sans;letter-spacing:0px;word-spacing:0px;fill:#000000;fill-opacity:1;stroke:#000000;stroke-width:0.04464626;stroke-opacity:1"
       d="m 117.19901,122.53705 c -0.55808,1e-5 -1.00628,0.27521 -1.34636,0.82456 -0.15406,0.2587 -0.2845,0.5235 -0.39205,0.79527 -0.10755,0.27178 -0.2187,0.60773 -0.33206,1.00593 -0.0814,0.28777 -0.18474,0.71528 -0.30973,1.28498 -0.0523,0.24416 -0.18149,0.86433 -0.38786,1.8584 -0.0349,0.16859 -0.0723,0.35334 -0.11301,0.55389 -0.0407,0.20056 -0.0717,0.35293 -0.0935,0.45902 -0.0218,0.1061 -0.0386,0.18626 -0.0502,0.23858 -0.28195,0.40693 -0.48088,0.66783 -0.59715,0.7841 -0.0476,0.0508 -0.1082,0.10591 -0.17998,0.16603 0.12912,-0.37949 0.19393,-0.759 0.19393,-1.13848 v -0.0865 c -0.0349,-0.63656 -0.22614,-1.12883 -0.57203,-1.47473 -0.35171,-0.3517 -0.76759,-0.52738 -1.25009,-0.52738 -0.4767,0 -0.93792,0.17057 -1.38264,0.51064 -0.36061,0.26869 -0.66021,0.63353 -0.89851,1.09523 -0.0599,-0.13059 -0.14167,-0.25499 -0.24695,-0.37531 -0.24416,-0.27903 -0.56064,-0.4961 -0.95013,-0.65016 -0.74701,-0.29938 -1.44077,-0.44925 -2.08023,-0.44925 -0.0116,0 -0.0388,0.003 -0.0809,0.007 -0.0422,0.004 -0.0679,0.006 -0.0795,0.006 0.49994,-0.17149 0.89908,-0.42855 1.19847,-0.77154 0.30229,-0.34589 0.45343,-0.72306 0.45344,-1.1329 -1e-5,-0.12207 -0.0116,-0.22799 -0.0349,-0.31811 -0.13371,-0.43889 -0.42054,-0.80839 -0.85944,-1.10778 -0.44763,-0.30519 -0.92816,-0.53261 -1.44263,-0.68086 -0.35462,-0.10172 -0.74865,-0.15206 -1.18173,-0.15207 -0.71504,10e-6 -1.42299,0.12534 -2.12349,0.37531 -0.68888,0.23835 -1.19138,0.54704 -1.50821,0.9278 -0.29357,0.33718 -0.44088,0.6654 -0.44088,0.98222 0,0.16859 0.0413,0.32869 0.12417,0.48274 0.0828,0.15406 0.19138,0.28846 0.32508,0.40181 0.20056,0.16569 0.43054,0.30904 0.68923,0.43112 0.18021,0.0465 0.31066,0.0698 0.39205,0.0698 0.19765,0 0.34624,-0.0736 0.44507,-0.22184 0.0727,-0.0814 0.10882,-0.17439 0.10882,-0.27904 0,-0.11044 -0.062,-0.19567 -0.18695,-0.25671 -0.3924,-0.18602 -0.58878,-0.37728 -0.58878,-0.57203 0,-0.19184 0.15115,-0.40623 0.45344,-0.64458 0.48251,-0.37496 1.17487,-0.56226 2.07884,-0.56227 0.76445,1e-5 1.33939,0.10465 1.72307,0.31392 0.52029,0.27614 0.77991,0.56413 0.77991,0.86642 0,0.0116 0,0.022 0,0.0307 0,0.15406 -0.0827,0.3259 -0.24834,0.51483 -0.17731,0.20347 -0.37752,0.37525 -0.60133,0.51622 -0.22382,0.14098 -0.41763,0.23149 -0.5804,0.26927 -0.0552,0.0146 -0.23742,0.0545 -0.54552,0.12139 l -0.3488,0.0656 -0.19533,0.0614 c 0.40112,-0.77607 0.63621,-1.33031 0.70597,-1.66168 0.006,-0.0116 0.008,-0.0374 0.008,-0.0781 0,-0.14533 -0.071,-0.27583 -0.21486,-0.39065 -0.14388,-0.11481 -0.30543,-0.17161 -0.48274,-0.17161 h -0.0433 c -0.39821,0.0262 -0.69923,0.27544 -0.90269,0.74922 -0.12499,0.29648 -0.38845,0.87142 -0.79247,1.72306 -0.45344,0.98246 -0.76352,1.66575 -0.9292,2.05234 -0.24125,0.55226 -0.41437,1.00838 -0.51901,1.36589 -0.0668,0.2616 -0.10046,0.46181 -0.10046,0.60133 0,0.30811 0.11627,0.56134 0.3488,0.75899 0.36624,0.31392 0.90234,0.47018 1.60866,0.47018 0.1744,0 0.46123,-0.0142 0.85944,-0.0433 1.62191,-0.10755 2.96025,-0.36985 4.01538,-0.7855 0.55807,-0.2209 1.0154,-0.50506 1.37147,-0.85386 0.0685,-0.0671 0.1327,-0.13658 0.19254,-0.20788 0.023,0.43199 0.13922,0.80108 0.3488,1.10639 0.24125,0.35171 0.54227,0.57773 0.90269,0.67946 0.21509,0.0523 0.42437,0.0781 0.62784,0.0781 0.49315,0 0.94414,-0.15611 1.35334,-0.46878 0.0622,0.0332 0.13741,0.0502 0.22742,0.0502 0.2616,0 0.57424,-0.12789 0.93757,-0.38368 l 0.57203,-0.44925 c -0.0116,0.10464 -0.0181,0.19254 -0.0181,0.2623 0,0.19765 0.0336,0.37984 0.10045,0.54552 0.0901,0.19184 0.17928,0.31322 0.26648,0.36554 0.0698,0.0436 0.25056,0.0785 0.54413,0.10464 h 0.16184 c 0.56099,0 1.09965,-0.15371 1.61703,-0.46181 0.32555,-0.20928 0.48832,-0.44832 0.48832,-0.71574 0,-0.0112 -6.7e-4,-0.0231 -0.001,-0.0349 l 0.0837,-0.0656 c -0.0116,0.10464 -0.0181,0.19254 -0.0181,0.2623 0,0.19765 0.0336,0.37984 0.10046,0.54552 0.0901,0.19184 0.17928,0.31322 0.26648,0.36554 0.0698,0.0436 0.25055,0.0785 0.54413,0.10464 h 0.16184 c 0.56098,0 1.09964,-0.15371 1.61703,-0.46181 0.0392,-0.0252 0.0758,-0.0507 0.11022,-0.0767 0.16122,-0.0623 0.33323,-0.15914 0.51762,-0.2902 0.66562,-0.4825 1.18754,-0.94757 1.56541,-1.39519 -0.14824,0.22091 -0.24381,0.5504 -0.28741,0.9864 l -0.004,0.0433 c -0.003,0.032 -0.004,0.0552 -0.004,0.0698 0,0.38368 0.14719,0.65493 0.44367,0.8148 0.28776,0.16568 0.58877,0.24834 0.90269,0.24834 0.24997,0 0.59877,-0.0762 1.0464,-0.23021 0.18439,-0.0648 0.36613,-0.16943 0.54412,-0.31113 0.27619,0.37233 0.83805,0.55948 1.68679,0.55948 0.90978,0 1.74178,-0.18219 2.49461,-0.54552 0.2645,-0.13371 0.57063,-0.38298 0.91943,-0.74922 0.3517,-0.37787 0.52738,-0.65691 0.52739,-0.83712 -1e-5,-0.0785 -0.0646,-0.14574 -0.19394,-0.19951 -0.12935,-0.0538 -0.26241,-0.0795 -0.39902,-0.0795 -0.11918,0 -0.20185,0.0233 -0.24835,0.0698 -0.27904,0.27614 -0.5904,0.49826 -0.93338,0.6683 -0.34299,0.17004 -0.77829,0.32636 -1.3073,0.46878 -0.12208,0.0291 -0.24486,0.0446 -0.36694,0.0446 -0.18312,0 -0.33682,-0.0232 -0.46181,-0.0698 -0.12498,-0.0465 -0.18695,-0.10859 -0.18695,-0.18416 0,-0.0233 0.009,-0.0516 0.0265,-0.0865 0.0174,-0.0291 0.042,-0.0549 0.0739,-0.0781 0.032,-0.0232 0.072,-0.0466 0.12138,-0.0684 0.0494,-0.0218 0.0985,-0.0412 0.1465,-0.0572 0.048,-0.016 0.1112,-0.0327 0.19114,-0.0516 0.0799,-0.0189 0.14969,-0.0344 0.20928,-0.046 0.0596,-0.0116 0.14225,-0.0284 0.24834,-0.0516 0.10609,-0.0232 0.19533,-0.0427 0.26509,-0.0572 0.32845,-0.0785 0.61388,-0.18568 0.85804,-0.32229 0.11045,-0.0756 0.18027,-0.15179 0.20789,-0.22882 0.0276,-0.077 0.0405,-0.19462 0.0405,-0.35159 v -0.19532 c -1e-5,-0.11336 -0.0994,-0.18835 -0.29997,-0.22324 -0.27323,-0.0494 -0.57424,-0.0907 -0.90269,-0.12556 -0.36043,-0.0407 -0.67563,-0.0859 -0.94594,-0.13534 -0.23254,-0.0436 -0.3488,-0.0953 -0.3488,-0.15347 0,-0.0233 0.0193,-0.0465 0.06,-0.0698 0.18312,-0.0843 0.3924,-0.12556 0.62784,-0.12557 0.0465,1e-5 0.18997,0.0104 0.42832,0.0307 0.27322,0.0116 0.43728,0.0167 0.49251,0.0167 0.10754,0 0.25613,-0.0103 0.44506,-0.0307 l 0.4088,-0.0516 c 0.15695,-0.0174 0.27066,-0.0446 0.34042,-0.0795 0.16858,-0.0901 0.27973,-0.19985 0.33206,-0.33066 0.0203,-0.0843 0.0707,-0.24834 0.15208,-0.4925 0.10463,-0.31101 0.16404,-0.49064 0.17858,-0.53715 0.0465,-0.16277 0.0697,-0.26217 0.0698,-0.29997 0,-0.0232 -0.005,-0.0349 -0.0167,-0.0349 h -0.01 c -0.72667,0.23254 -1.39322,0.36555 -2.00071,0.40042 -0.32555,0.0204 -0.55552,0.041 -0.68922,0.0614 l -0.64877,0.0823 c -0.3052,0.032 -0.53518,0.0643 -0.68923,0.0963 -0.15696,0.0378 -0.33787,0.11011 -0.54133,0.21765 -0.20347,0.10755 -0.37787,0.24067 -0.5232,0.39763 -0.15405,0.16278 -0.23021,0.36299 -0.23021,0.60133 0,0.38368 0.17312,0.6769 0.51901,0.88037 0.16859,0.11045 0.50704,0.21253 1.01571,0.30554 l 0.10882,0.0265 h -0.008 c -0.24416,0.0872 -0.52843,0.25126 -0.85107,0.49251 -0.17149,0.12789 -0.31101,0.2777 -0.41856,0.45065 -10e-4,0.002 -0.002,0.004 -0.003,0.006 -0.15228,0.0129 -0.34064,0.0851 -0.56644,0.21905 -0.2151,0.11917 -0.36753,0.17858 -0.45763,0.17858 -0.14243,0 -0.21347,-0.11103 -0.21346,-0.33485 0.061,-0.51157 0.20311,-1.06836 0.42693,-1.67005 0.24706,-0.67434 0.40204,-1.16009 0.46599,-1.45658 0.0116,-0.0814 0.0181,-0.13172 0.0181,-0.15208 0,-0.1773 -0.0594,-0.27938 -0.17858,-0.30554 -0.0959,-0.0291 -0.20452,-0.0433 -0.32369,-0.0433 -0.11046,0 -0.3481,0.0478 -0.71434,0.1437 l -0.12278,0.0516 c -0.093,0.0349 -0.18858,0.0995 -0.28741,0.19254 -0.0988,0.093 -0.16731,0.19638 -0.20509,0.30973 -0.13661,0.39531 -0.53192,0.93653 -1.18592,1.62541 -0.64237,0.67725 -1.13069,1.09325 -1.46495,1.2473 -0.0905,0.0441 -0.17245,0.0897 -0.24556,0.13673 -0.0666,0.0279 -0.13707,0.0606 -0.21625,0.0991 -0.29067,0.14243 -0.47797,0.22254 -0.56227,0.23997 -0.0174,0.003 -0.0368,0.005 -0.0586,0.008 -0.0218,0.003 -0.0386,0.006 -0.0502,0.007 -0.0116,0.002 -0.0207,0.001 -0.0265,0.001 -0.14824,0 -0.2309,-0.10464 -0.24834,-0.31392 v -0.29996 c 0,-0.28195 0.0413,-0.57785 0.12557,-0.88595 0.55517,-0.43891 1.10429,-1.06674 1.64493,-1.88352 0.54064,-0.80514 0.91525,-1.54017 1.12453,-2.2058 0.14823,-0.51157 0.22183,-1.00895 0.22184,-1.49147 -1e-5,-0.35169 -0.0426,-0.65782 -0.12836,-0.91943 -0.0857,-0.26159 -0.2201,-0.46959 -0.40321,-0.62365 -0.18313,-0.15405 -0.40787,-0.23287 -0.67528,-0.23579 -0.55808,1e-5 -1.00768,0.27521 -1.34776,0.82456 -0.15405,0.2587 -0.2845,0.5235 -0.39205,0.79526 -0.10755,0.27178 -0.2187,0.60773 -0.33205,1.00594 -0.0814,0.28776 -0.18475,0.71527 -0.30974,1.28497 -0.0523,0.24417 -0.18149,0.86433 -0.38786,1.8584 -0.0349,0.16859 -0.0723,0.35334 -0.11301,0.5539 -0.0407,0.20056 -0.0717,0.35293 -0.0935,0.45902 -0.0218,0.10609 -0.0386,0.18626 -0.0502,0.23857 -0.28195,0.40694 -0.48088,0.66784 -0.59715,0.7841 -0.12789,0.13662 -0.34368,0.30718 -0.64597,0.51065 -0.003,0 -0.0972,0.0529 -0.28323,0.16044 -0.0407,0.0204 -0.0923,0.054 -0.15626,0.0991 -0.0639,0.0451 -0.11045,0.0824 -0.13952,0.11441 -0.0528,0.0528 -0.0965,0.10625 -0.13115,0.15905 -0.1013,-0.0314 -0.15877,-0.13201 -0.173,-0.30276 v -0.29996 c 0,-0.28195 0.0413,-0.57785 0.12557,-0.88595 0.55516,-0.43891 1.10289,-1.06674 1.64354,-1.88352 0.54063,-0.80514 0.91664,-1.54017 1.12592,-2.2058 0.14823,-0.51156 0.22183,-1.00895 0.22184,-1.49146 -1e-5,-0.3517 -0.0426,-0.65783 -0.12836,-0.91944 -0.0858,-0.26159 -0.2201,-0.46959 -0.40321,-0.62365 -0.18313,-0.15404 -0.40927,-0.23287 -0.67667,-0.23579 z m -0.12975,1.56541 c 0.0901,1e-5 0.13917,0.11883 0.14789,0.35717 v 0.0265 c 0,0.45926 -0.12534,1.03024 -0.37531,1.7133 -0.25288,0.68598 -0.63656,1.3423 -1.15103,1.96723 l 0.75061,-3.1085 c 0.0436,-0.18311 0.13266,-0.38855 0.26928,-0.61528 0.14532,-0.22671 0.26554,-0.34042 0.35856,-0.34043 z m 3.24244,0 c 0.0901,1e-5 0.13916,0.11883 0.14789,0.35717 v 0.0265 c -1e-5,0.45926 -0.12534,1.03024 -0.37531,1.7133 -0.25288,0.68598 -0.63656,1.3423 -1.15104,1.96723 l 0.75062,-3.1085 c 0.0436,-0.18311 0.13405,-0.38855 0.27067,-0.61528 0.14533,-0.22671 0.26415,-0.34042 0.35717,-0.34043 z m 3.9498,0.95571 c -0.19766,10e-6 -0.36171,0.0452 -0.49251,0.13673 -0.1308,0.0916 -0.20184,0.21557 -0.21346,0.37252 v 0.0879 c -1e-5,0.26741 0.0839,0.51157 0.25253,0.73247 0.16858,0.22091 0.36751,0.33067 0.59714,0.33066 h 0.053 c 0.29066,-0.29066 0.4353,-0.63294 0.4353,-1.02825 0,-0.15986 -0.0272,-0.29427 -0.0809,-0.40182 -0.0538,-0.10754 -0.12348,-0.16695 -0.21067,-0.17859 -0.11627,-0.0349 -0.22998,-0.0516 -0.34043,-0.0516 z m -19.70296,3.11687 c 0.74701,0 1.43426,0.071 2.0621,0.21346 0.34589,0.0727 0.62109,0.18377 0.82456,0.33346 0.20346,0.14969 0.30415,0.32415 0.30415,0.5218 0,0.0116 -0.001,0.0232 -0.004,0.0363 -0.003,0.0131 -0.006,0.0312 -0.008,0.053 -0.003,0.0218 -0.005,0.0399 -0.008,0.0544 -0.11336,0.4767 -0.42089,0.85131 -0.92083,1.12453 -0.39821,0.22091 -0.92908,0.41984 -1.5947,0.59715 -0.20057,0.061 -0.46938,0.11138 -0.80364,0.15207 -0.41565,0.0494 -0.75794,0.0753 -1.02826,0.0753 -0.63074,0 -0.98605,-0.10208 -1.06453,-0.30554 -0.006,-0.0174 -0.008,-0.0536 -0.008,-0.10883 0,-0.40402 0.36042,-1.30578 1.08128,-2.70389 0.0174,0.0174 0.0381,0.0265 0.0614,0.0265 h 0.0307 c 0.23834,-0.0465 0.59749,-0.0698 1.07709,-0.0698 z m 7.19223,0.65016 c 0.012,-8.4e-4 0.0231,0 0.0349,0 0.16859,0 0.29648,0.0981 0.38368,0.29578 0.0378,0.10755 0.0572,0.23033 0.0572,0.36694 0,0.38659 -0.10859,0.76375 -0.32368,1.1329 -0.20638,0.36914 -0.48274,0.55389 -0.83154,0.55389 -0.006,0 -0.0614,-0.007 -0.16603,-0.0181 -0.23834,-0.0785 -0.35717,-0.2838 -0.35717,-0.61807 0,-0.3052 0.0594,-0.57005 0.17859,-0.79387 0.0552,-0.15986 0.1973,-0.34972 0.42693,-0.57063 0.218,-0.218 0.41746,-0.33517 0.59714,-0.3488 z"
       id="flowRoot2985"
       inkscape:export-xdpi="96"
       inkscape:export-ydpi="96"
       inkscape:export-filename="/home/rajan/mod-plugins-deploy/bolliedelayxt.lv2/modgui/background.png" />
    <g
       id="g5212"
       transform="matrix(0.27556033,0,0,0.27556033,82.230976,79.34589)"
       inkscape:export-filename="/home/rajan/mod-plugins-deploy/bolliedelayxt.lv2/modgui/background.png"
       inkscape:export-xdpi="96"
       inkscape:export-ydpi="96">
      <path
         sodipodi:nodetypes="cccccccccccccccccccccccccccccccccccccccccccccccccccccccccccccccccccc"
         inkscape:connector-curvature="0"
         id="path826"
         d="m -32.185164,40.211286 6.047618,-5.669642 4.913691,-4.15774 6.803571,-5.291666 10.2053564,-6.425594 3.77976397,-7.559525 -4.91369097,3.401785 15.119048,-13.98511775 -17.00893,8.31547595 17.00893,-13.229167 3.7797606,-4.913691 11.717261,-0.377976 19.276788,-0.7559512 11.339284,1.8898812 14.363094,-2.6458332 18.14286,-2.645833 4.53571,7.5595242 -0.75595,9.071428 1.5119,11.3392848 -0.37797,3.779763 c 0,0 6.992559,27.592256 10.016359,35.529756 -4.346729,9.827389 -9.827369,20.788684 -8.126479,24.190474 0,0 3.59077,9.63839 3.02382,9.07143 3.018479,8.02585 -3.08793,15.223448 -2.64584,22.678578 l -1.51191,4.53571 v 0 l -3.40178,1.5119 4.91369,7.18156 10.961309,6.04761 0.37797,9.4494 -15.874999,1.51192 -15.11904,6.42558 -13.229171,17.76489 c 0,0 -5.158031,10.0252 -6.093476,14.56878 -1.737251,1.73725 -4.867836,23.22883 -4.867836,23.22883 l -3.779761,-25.32439 -4.535715,26.45832 -1.511903,-29.48213 c -3.708365,4.2763 -7.181548,23.05654 -7.181548,23.05654 -3.023809,-7.43353 -6.047618,-12.31817 -9.071428,-22.30059 l -4.157739,-9.07143 c -0.601355,-0.30068 -1.503391,2.9288 -1.503391,2.9288 l 0.369464,-13.89012 -4.535715,23.8125 -2.267858,-24.19047 4.913691,-23.43453 c 0,0 -7.370538,20.22174 -10.2053576,23.8125 -1.133927,-3.21279 4.9136906,-29.48214 4.9136906,-29.48214 0,0 -4.9136906,6.80357 -8.6934506,11.71727 -0.566965,-6.80357 7.1815446,-20.41071 7.1815446,-20.41071 l -3.0238086,-5.66965 7.5595236,-14.363098 -2.645833,-4.53572 0.755952,-9.82738 c 0,0 -2.267858,0.18899 -1.511903,-7.55951 -1.256885,0.77398 -2.267858,-0.37799 -2.267858,-0.37799 -6.6145826,3.77977 -4.5357146,1.51191 -4.5357146,1.51191 L 10.904121,62.511886 3.3445974,67.803547 9.7701934,54.952356 c 0,0 -8.88244003,6.047621 -14.363096,7.181551 0,0 7.9375,-12.095242 16.2529746,-19.654761 l -16.6309506,10.20535 1.133927,-8.693449 -10.9613084,-0.755952 -16.252976,3.023812 -5.291667,-0.755952 z"
         style="display:inline;fill:#000000;fill-opacity:1;fill-rule:evenodd;stroke:#000000;stroke-width:0.26458332px;stroke-linecap:butt;stroke-linejoin:miter;stroke-opacity:1" />
      <path
         sodipodi:nodetypes="cccscccccccccccccccccccccccccccccccccccccccsccccccccccccccc"
         inkscape:connector-curvature="0"
         id="path828"
         d="m 119.76126,-23.66669 19.65477,-8.315476 13.22917,1.889882 c 0,0 -12.47323,3.779761 -11.3393,3.401785 1.13393,-0.377976 11.3393,3.779761 11.3393,3.779761 l 12.09523,0.377976 -2.64583,3.023811 15.875,5.291667 15.49701,7.5595212 16.25299,7.937501 3.40178,1.13393 -21.54464,7.9374998 -14.3631,2.645833 -1.88988,5.291667 15.875,10.205357 -17.00893,-4.535715 17.38691,16.252976 -13.22917,-4.535715 11.33929,13.607145 -9.4494,-1.889879 4.91368,13.229159 -7.18154,-2.26785 9.4494,12.473206 -9.82739,-3.401786 7.18156,13.229176 -5.66964,-4.15775 6.80357,16.63097 11.33928,25.324388 0.37798,4.91369 -14.3631,-16.25298 3.77977,16.63097 -1.13393,0.75594 -6.04763,-8.31548 2.26786,12.85119 6.04763,10.58335 -9.44942,-6.04762 -2.64583,15.11904 -4.15774,10.58334 0.37799,13.22916 -6.42561,-17.76488 -9.82738,-4.91369 -2.82138,-7.76195 -2.19908,-9.09041 c 0,0 0.94331,-3.64221 0.94331,-7.044 0,-3.40178 -2.34843,-7.47567 -2.34843,-7.47567 0,0 6.99254,-4.67745 8.31546,-7.55951 0,0 2.64585,-11.953498 1.51191,-13.229168 0,-2.17337 -4.53572,-14.74107 -4.53572,-14.74107 l -6.80357,-13.98513 -7.9375,-7.181546 -12.85119,-9.07143 -7.55952,-7.559519 -7.18155,-13.229167 -3.40179,-5.291666 c 2.15824,-9.178486 -1.64529,-14.629884 -5.66964,-22.6785728 l -10.583329,-10.205355 3.77976,-9.8273822 14.363099,-3.401785 z"
         style="display:inline;fill:#000000;fill-opacity:1;fill-rule:evenodd;stroke:#000000;stroke-width:0.26458332px;stroke-linecap:butt;stroke-linejoin:miter;stroke-opacity:1" />
      <path
         inkscape:connector-curvature="0"
         id="path838"
         d="m 119.85576,104.9397 c -1.00379,-1.79937 -2.08831,-3.56905 -3.04169,-5.386948 -0.27751,-1.48014 -0.55504,-2.96028 -0.83257,-4.44042 0.52858,-2.44547 1.02909,-4.89846 1.41741,-7.37054 0.95585,-1.90717 2.93214,-2.75246 4.84581,-3.25518 1.78065,-0.73325 3.72242,-1.0409 5.64303,-0.99705 1.65477,0.80287 3.5168,1.06977 5.29167,1.5119 1.92582,-0.66417 3.60288,-1.87932 5.19717,-3.11831 2.48608,-0.72608 5.10953,-1.75269 7.70835,-0.92126 1.00979,0.47622 2.76624,-0.0393 3.05425,1.33434 0.72208,1.5981 1.52098,3.17389 2.19557,4.78575 0.29432,2.42471 0.67123,4.85196 0.91408,7.2751 -0.38555,1.81601 -0.63931,3.67647 -1.10716,5.4647 -0.90787,1.756388 -1.70007,3.584138 -2.68155,5.295108 -1.40178,1.68267 -3.37785,2.71513 -5.06174,4.08247 -1.33368,1.05819 -2.9953,1.57483 -4.48327,2.37822 -0.95227,0.5109 -2.09915,0.34987 -3.13928,0.55742 -1.42346,0.17182 -2.85078,-0.20667 -4.27594,-0.27619 -1.00896,-0.14603 -2.09429,-0.0281 -2.96741,-0.6436 -1.32392,-0.70076 -2.72673,-1.28589 -4.00153,-2.05864 -1.55839,-1.40562 -3.11681,-2.81125 -4.6752,-4.21687 z"
         style="display:inline;fill:#000000;fill-opacity:1;fill-rule:evenodd;stroke:#000000;stroke-width:0.26458332px;stroke-linecap:butt;stroke-linejoin:miter;stroke-opacity:1" />
      <path
         sodipodi:nodetypes="ccccccccccccc"
         inkscape:connector-curvature="0"
         id="path840"
         d="m 109.93388,124.87795 3.2015,0.16229 7.61719,-3.4745 8.15172,-2.6727 4.00904,-1.87089 c 0,0 0.93544,-0.26726 1.60363,-0.4009 0.66816,-0.13364 3.60812,0.26728 3.60812,0.26728 4.63586,1.19381 6.40523,2.17832 9.97358,4.94324 v 0 c -11.63827,-0.61232 -20.72736,2.00027 -31.88968,4.67846 l -3.74176,0.80181 -10.95806,-5.47904 z"
         style="display:inline;fill:#000000;fill-opacity:1;fill-rule:evenodd;stroke:#000000;stroke-width:0.26458332px;stroke-linecap:butt;stroke-linejoin:miter;stroke-opacity:1" />
      <path
         sodipodi:open="true"
         d="m 84.876753,50.166981 a 7.6768937,6.9894614 0 0 1 -7.659467,6.989443 7.6768937,6.9894614 0 0 1 -7.694241,-6.957711 7.6768937,6.9894614 0 0 1 7.624535,-7.021032 7.6768937,6.9894614 0 0 1 7.728857,6.925836"
         sodipodi:end="6.2741053"
         sodipodi:start="0"
         sodipodi:ry="6.9894614"
         sodipodi:rx="7.6768937"
         sodipodi:cy="50.166981"
         sodipodi:cx="77.19986"
         sodipodi:type="arc"
         id="path4549"
         style="display:inline;opacity:1;fill:#c47d3d;fill-opacity:1;stroke:none;stroke-width:0.48339468;stroke-miterlimit:4;stroke-dasharray:none;stroke-opacity:1" />
      <path
         sodipodi:open="true"
         d="m 79.506799,47.345585 a 3.5435269,2.126116 0 0 1 -3.535487,2.12611 3.5435269,2.126116 0 0 1 -3.55153,-2.116462 3.5435269,2.126116 0 0 1 3.51937,-2.135715 3.5435269,2.126116 0 0 1 3.567501,2.106771"
         sodipodi:end="6.2741096"
         sodipodi:start="0"
         sodipodi:ry="2.126116"
         sodipodi:rx="3.5435269"
         sodipodi:cy="47.345585"
         sodipodi:cx="75.963272"
         sodipodi:type="arc"
         id="path4551"
         style="display:inline;opacity:0;fill:#c47d3d;fill-opacity:1;stroke:none;stroke-width:0.52916664;stroke-miterlimit:4;stroke-dasharray:none;stroke-opacity:1" />
      <path
         d="m 83.072505,50.402096 a 3.6852679,3.4490328 0 0 1 -3.676906,3.449024 3.6852679,3.4490328 0 0 1 -3.693591,-3.433373 3.6852679,3.4490328 0 0 1 3.660145,-3.464604 3.6852679,3.4490328 0 0 1 3.710201,3.417651"
         sodipodi:open="true"
         sodipodi:end="6.2741096"
         sodipodi:start="0"
         sodipodi:ry="3.4490328"
         sodipodi:rx="3.6852679"
         sodipodi:cy="50.402096"
         sodipodi:cx="79.387238"
         sodipodi:type="arc"
         id="path4553"
         style="display:inline;opacity:1;fill:#000000;fill-opacity:1;stroke:none;stroke-width:0.24665178;stroke-miterlimit:4;stroke-dasharray:none;stroke-opacity:1" />
      <path
         d="m 143.17237,37.054913 a 5.0082288,6.2168403 0 0 1 -4.99687,6.216824 5.0082288,6.2168403 0 0 1 -5.01954,-6.188613 5.0082288,6.2168403 0 0 1 4.97409,-6.244908 5.0082288,6.2168403 0 0 1 5.04211,6.160275"
         sodipodi:open="true"
         sodipodi:end="6.2741096"
         sodipodi:start="0"
         sodipodi:ry="6.2168403"
         sodipodi:rx="5.0082288"
         sodipodi:cy="37.054913"
         sodipodi:cx="138.16414"
         sodipodi:type="arc"
         id="path5162"
         style="display:inline;opacity:1;fill:#c47d3d;fill-opacity:1;stroke:none;stroke-width:0.97194123;stroke-miterlimit:4;stroke-dasharray:none;stroke-opacity:1" />
      <path
         d="m 142.03838,36.93401 a 3.1183031,3.307292 0 0 1 -3.11123,3.307283 3.1183031,3.307292 0 0 1 -3.12535,-3.292275 3.1183031,3.307292 0 0 1 3.09705,-3.322224 3.1183031,3.307292 0 0 1 3.1394,3.2772"
         sodipodi:open="true"
         sodipodi:end="6.2741096"
         sodipodi:start="0"
         sodipodi:ry="3.307292"
         sodipodi:rx="3.1183031"
         sodipodi:cy="36.93401"
         sodipodi:cx="138.92007"
         sodipodi:type="arc"
         id="path4557"
         style="display:inline;opacity:1;fill:#000000;fill-opacity:1;stroke:none;stroke-width:0.52916664;stroke-miterlimit:4;stroke-dasharray:none;stroke-opacity:1" />
    </g>
  </g>
</svg>
