<?xml version="1.0" encoding="UTF-8" standalone="no"?>
<!-- Created with Inkscape (http://www.inkscape.org/) -->

<svg
   xmlns:dc="http://purl.org/dc/elements/1.1/"
   xmlns:cc="http://creativecommons.org/ns#"
   xmlns:rdf="http://www.w3.org/1999/02/22-rdf-syntax-ns#"
   xmlns:svg="http://www.w3.org/2000/svg"
   xmlns="http://www.w3.org/2000/svg"
   xmlns:sodipodi="http://sodipodi.sourceforge.net/DTD/sodipodi-0.dtd"
   xmlns:inkscape="http://www.inkscape.org/namespaces/inkscape"
   width="210mm"
   height="297mm"
   viewBox="0 0 210 297"
   version="1.1"
   id="svg8"
   inkscape:version="0.92.2 5c3e80d, 2017-08-06"
   sodipodi:docname="back.svg">
  <defs
     id="defs2" />
  <sodipodi:namedview
     id="base"
     pagecolor="#ffffff"
     bordercolor="#666666"
     borderopacity="1.0"
     inkscape:pageopacity="0.0"
     inkscape:pageshadow="2"
     inkscape:zoom="0.98994949"
     inkscape:cx="691.8677"
     inkscape:cy="975.79998"
     inkscape:document-units="mm"
     inkscape:current-layer="layer1"
     showgrid="false"
     inkscape:window-width="1920"
     inkscape:window-height="983"
     inkscape:window-x="0"
     inkscape:window-y="27"
     inkscape:window-maximized="1" />
  <metadata
     id="metadata5">
    <rdf:RDF>
      <cc:Work
         rdf:about="">
        <dc:format>image/svg+xml</dc:format>
        <dc:type
           rdf:resource="http://purl.org/dc/dcmitype/StillImage" />
        <dc:title />
      </cc:Work>
    </rdf:RDF>
  </metadata>
  <g
     inkscape:label="Layer 1"
     inkscape:groupmode="layer"
     id="layer1">
    <rect
       style="fill:#bfbfbf;fill-opacity:1;stroke:none;stroke-width:3.70153904;stroke-miterlimit:4;stroke-dasharray:none;stroke-opacity:1"
       id="rect4504"
       width="172.03139"
       height="132.03557"
       x="22.589001"
       y="5.8857169"
       ry="5.4978185"
       inkscape:export-xdpi="96"
       inkscape:export-ydpi="96"
       inkscape:export-filename="/home/rajan/mod-plugins-deploy/bolliedelayxt.lv2/modgui/background.png" />
    <rect
       ry="5.4545922"
       y="5.9709029"
       x="23.328827"
       height="130.99753"
       width="169.78612"
       id="rect4540"
       style="fill:#f6f6f6;fill-opacity:1;stroke:#616161;stroke-width:0.50136936;stroke-miterlimit:4;stroke-dasharray:none;stroke-opacity:0.94984328"
       inkscape:export-xdpi="96"
       inkscape:export-ydpi="96"
       inkscape:export-filename="/home/rajan/mod-plugins-deploy/bolliedelayxt.lv2/modgui/background.png" />
    <path
       inkscape:connector-curvature="0"
       style="font-style:normal;font-weight:normal;font-size:40px;line-height:125%;font-family:Sans;letter-spacing:0px;word-spacing:0px;fill:#000000;fill-opacity:1;stroke:#000000;stroke-width:0.04464626;stroke-opacity:1"
       d="m 374.84684,154.60939 c -0.55808,1e-5 -1.00628,0.27521 -1.34636,0.82456 -0.15406,0.2587 -0.2845,0.5235 -0.39205,0.79527 -0.10755,0.27178 -0.2187,0.60773 -0.33206,1.00593 -0.0814,0.28777 -0.18474,0.71528 -0.30973,1.28498 -0.0523,0.24416 -0.18149,0.86433 -0.38786,1.8584 -0.0349,0.16859 -0.0723,0.35334 -0.11301,0.55389 -0.0407,0.20056 -0.0717,0.35293 -0.0935,0.45902 -0.0218,0.1061 -0.0386,0.18626 -0.0502,0.23858 -0.28195,0.40693 -0.48088,0.66783 -0.59715,0.7841 -0.0476,0.0508 -0.1082,0.10591 -0.17998,0.16603 0.12912,-0.37949 0.19393,-0.759 0.19393,-1.13848 v -0.0865 c -0.0349,-0.63656 -0.22614,-1.12883 -0.57203,-1.47473 -0.35171,-0.3517 -0.76759,-0.52738 -1.25009,-0.52738 -0.4767,0 -0.93792,0.17057 -1.38264,0.51064 -0.36061,0.26869 -0.66021,0.63353 -0.89851,1.09523 -0.0599,-0.13059 -0.14167,-0.25499 -0.24695,-0.37531 -0.24416,-0.27903 -0.56064,-0.4961 -0.95013,-0.65016 -0.74701,-0.29938 -1.44077,-0.44925 -2.08023,-0.44925 -0.0116,0 -0.0388,0.003 -0.0809,0.007 -0.0422,0.004 -0.0679,0.006 -0.0795,0.006 0.49994,-0.17149 0.89908,-0.42855 1.19847,-0.77154 0.30229,-0.34589 0.45343,-0.72306 0.45344,-1.1329 -1e-5,-0.12207 -0.0116,-0.22799 -0.0349,-0.31811 -0.13371,-0.43889 -0.42054,-0.80839 -0.85944,-1.10778 -0.44763,-0.30519 -0.92816,-0.53261 -1.44263,-0.68086 -0.35462,-0.10172 -0.74865,-0.15206 -1.18173,-0.15207 -0.71504,1e-5 -1.42299,0.12534 -2.12349,0.37531 -0.68888,0.23835 -1.19138,0.54704 -1.50821,0.9278 -0.29357,0.33718 -0.44088,0.6654 -0.44088,0.98222 0,0.16859 0.0413,0.32869 0.12417,0.48274 0.0828,0.15406 0.19138,0.28846 0.32508,0.40181 0.20056,0.16569 0.43054,0.30904 0.68923,0.43112 0.18021,0.0465 0.31066,0.0698 0.39205,0.0698 0.19765,0 0.34624,-0.0736 0.44507,-0.22184 0.0727,-0.0814 0.10882,-0.17439 0.10882,-0.27904 0,-0.11044 -0.062,-0.19567 -0.18695,-0.25671 -0.3924,-0.18602 -0.58878,-0.37728 -0.58878,-0.57203 0,-0.19184 0.15115,-0.40623 0.45344,-0.64458 0.48251,-0.37496 1.17487,-0.56226 2.07884,-0.56227 0.76445,1e-5 1.33939,0.10465 1.72307,0.31392 0.52029,0.27614 0.77991,0.56413 0.77991,0.86642 0,0.0116 0,0.022 0,0.0307 0,0.15406 -0.0827,0.3259 -0.24834,0.51483 -0.17731,0.20347 -0.37752,0.37525 -0.60133,0.51622 -0.22382,0.14098 -0.41763,0.23149 -0.5804,0.26927 -0.0552,0.0146 -0.23742,0.0545 -0.54552,0.12139 l -0.3488,0.0656 -0.19533,0.0614 c 0.40112,-0.77607 0.63621,-1.33031 0.70597,-1.66168 0.006,-0.0116 0.008,-0.0374 0.008,-0.0781 0,-0.14533 -0.071,-0.27583 -0.21486,-0.39065 -0.14388,-0.11481 -0.30543,-0.17161 -0.48274,-0.17161 h -0.0433 c -0.39821,0.0262 -0.69923,0.27544 -0.90269,0.74922 -0.12499,0.29648 -0.38845,0.87142 -0.79247,1.72306 -0.45344,0.98246 -0.76352,1.66575 -0.9292,2.05234 -0.24125,0.55226 -0.41437,1.00838 -0.51901,1.36589 -0.0668,0.2616 -0.10046,0.46181 -0.10046,0.60133 0,0.30811 0.11627,0.56134 0.3488,0.75899 0.36624,0.31392 0.90234,0.47018 1.60866,0.47018 0.1744,0 0.46123,-0.0142 0.85944,-0.0433 1.62191,-0.10755 2.96025,-0.36985 4.01538,-0.7855 0.55807,-0.2209 1.0154,-0.50506 1.37147,-0.85386 0.0685,-0.0671 0.1327,-0.13658 0.19254,-0.20788 0.023,0.43199 0.13922,0.80108 0.3488,1.10639 0.24125,0.35171 0.54227,0.57773 0.90269,0.67946 0.21509,0.0523 0.42437,0.0781 0.62784,0.0781 0.49315,0 0.94414,-0.15611 1.35334,-0.46878 0.0622,0.0332 0.13741,0.0502 0.22742,0.0502 0.2616,0 0.57424,-0.12789 0.93757,-0.38368 l 0.57203,-0.44925 c -0.0116,0.10464 -0.0181,0.19254 -0.0181,0.2623 0,0.19765 0.0336,0.37984 0.10045,0.54552 0.0901,0.19184 0.17928,0.31322 0.26648,0.36554 0.0698,0.0436 0.25056,0.0785 0.54413,0.10464 h 0.16184 c 0.56099,0 1.09965,-0.15371 1.61703,-0.46181 0.32555,-0.20928 0.48832,-0.44832 0.48832,-0.71574 0,-0.0112 -6.7e-4,-0.0231 -10e-4,-0.0349 l 0.0837,-0.0656 c -0.0116,0.10464 -0.0181,0.19254 -0.0181,0.2623 0,0.19765 0.0336,0.37984 0.10046,0.54552 0.0901,0.19184 0.17928,0.31322 0.26648,0.36554 0.0698,0.0436 0.25055,0.0785 0.54413,0.10464 h 0.16184 c 0.56098,0 1.09964,-0.15371 1.61703,-0.46181 0.0392,-0.0252 0.0758,-0.0507 0.11022,-0.0767 0.16122,-0.0623 0.33323,-0.15914 0.51762,-0.2902 0.66562,-0.4825 1.18754,-0.94757 1.56541,-1.39519 -0.14824,0.22091 -0.24381,0.5504 -0.28741,0.9864 l -0.004,0.0433 c -0.003,0.032 -0.004,0.0552 -0.004,0.0698 0,0.38368 0.14719,0.65493 0.44367,0.8148 0.28776,0.16568 0.58877,0.24834 0.90269,0.24834 0.24997,0 0.59877,-0.0762 1.0464,-0.23021 0.18439,-0.0648 0.36613,-0.16943 0.54412,-0.31113 0.27619,0.37233 0.83805,0.55948 1.68679,0.55948 0.90978,0 1.74178,-0.18219 2.49461,-0.54552 0.2645,-0.13371 0.57063,-0.38298 0.91943,-0.74922 0.3517,-0.37787 0.52738,-0.65691 0.52739,-0.83712 -1e-5,-0.0785 -0.0646,-0.14574 -0.19394,-0.19951 -0.12935,-0.0538 -0.26241,-0.0795 -0.39902,-0.0795 -0.11918,0 -0.20185,0.0233 -0.24835,0.0698 -0.27904,0.27614 -0.5904,0.49826 -0.93338,0.6683 -0.34299,0.17004 -0.77829,0.32636 -1.3073,0.46878 -0.12208,0.0291 -0.24486,0.0446 -0.36694,0.0446 -0.18312,0 -0.33682,-0.0232 -0.46181,-0.0698 -0.12498,-0.0465 -0.18695,-0.10859 -0.18695,-0.18416 0,-0.0233 0.009,-0.0516 0.0265,-0.0865 0.0174,-0.0291 0.042,-0.0549 0.0739,-0.0781 0.032,-0.0232 0.072,-0.0466 0.12138,-0.0684 0.0494,-0.0218 0.0985,-0.0412 0.1465,-0.0572 0.048,-0.016 0.1112,-0.0327 0.19114,-0.0516 0.0799,-0.0189 0.14969,-0.0344 0.20928,-0.046 0.0596,-0.0116 0.14225,-0.0284 0.24834,-0.0516 0.10609,-0.0232 0.19533,-0.0427 0.26509,-0.0572 0.32845,-0.0785 0.61388,-0.18568 0.85804,-0.32229 0.11045,-0.0756 0.18027,-0.15179 0.20789,-0.22882 0.0276,-0.077 0.0405,-0.19462 0.0405,-0.35159 v -0.19532 c -1e-5,-0.11336 -0.0994,-0.18835 -0.29997,-0.22324 -0.27323,-0.0494 -0.57424,-0.0907 -0.90269,-0.12556 -0.36043,-0.0407 -0.67563,-0.0859 -0.94594,-0.13534 -0.23254,-0.0436 -0.3488,-0.0953 -0.3488,-0.15347 0,-0.0233 0.0193,-0.0465 0.06,-0.0698 0.18312,-0.0843 0.3924,-0.12556 0.62784,-0.12557 0.0465,1e-5 0.18997,0.0104 0.42832,0.0307 0.27322,0.0116 0.43728,0.0167 0.49251,0.0167 0.10754,0 0.25613,-0.0103 0.44506,-0.0307 l 0.4088,-0.0516 c 0.15695,-0.0174 0.27066,-0.0446 0.34042,-0.0795 0.16858,-0.0901 0.27973,-0.19985 0.33206,-0.33066 0.0203,-0.0843 0.0707,-0.24834 0.15208,-0.4925 0.10463,-0.31101 0.16404,-0.49064 0.17858,-0.53715 0.0465,-0.16277 0.0697,-0.26217 0.0698,-0.29997 0,-0.0232 -0.005,-0.0349 -0.0167,-0.0349 h -0.01 c -0.72667,0.23254 -1.39322,0.36555 -2.00071,0.40042 -0.32555,0.0204 -0.55552,0.041 -0.68922,0.0614 l -0.64877,0.0823 c -0.3052,0.032 -0.53518,0.0643 -0.68923,0.0963 -0.15696,0.0378 -0.33787,0.11011 -0.54133,0.21765 -0.20347,0.10755 -0.37787,0.24067 -0.5232,0.39763 -0.15405,0.16278 -0.23021,0.36299 -0.23021,0.60133 0,0.38368 0.17312,0.6769 0.51901,0.88037 0.16859,0.11045 0.50704,0.21253 1.01571,0.30554 l 0.10882,0.0265 h -0.008 c -0.24416,0.0872 -0.52843,0.25126 -0.85107,0.49251 -0.17149,0.12789 -0.31101,0.2777 -0.41856,0.45065 -10e-4,0.002 -0.002,0.004 -0.003,0.006 -0.15228,0.0129 -0.34064,0.0851 -0.56644,0.21905 -0.2151,0.11917 -0.36753,0.17858 -0.45763,0.17858 -0.14243,0 -0.21347,-0.11103 -0.21346,-0.33485 0.061,-0.51157 0.20311,-1.06836 0.42693,-1.67005 0.24706,-0.67434 0.40204,-1.16009 0.46599,-1.45658 0.0116,-0.0814 0.0181,-0.13172 0.0181,-0.15208 0,-0.1773 -0.0594,-0.27938 -0.17858,-0.30554 -0.0959,-0.0291 -0.20452,-0.0433 -0.32369,-0.0433 -0.11046,0 -0.3481,0.0478 -0.71434,0.1437 l -0.12278,0.0516 c -0.093,0.0349 -0.18858,0.0995 -0.28741,0.19254 -0.0988,0.093 -0.16731,0.19638 -0.20509,0.30973 -0.13661,0.39531 -0.53192,0.93653 -1.18592,1.62541 -0.64237,0.67725 -1.13069,1.09325 -1.46495,1.2473 -0.0905,0.0441 -0.17245,0.0897 -0.24556,0.13673 -0.0666,0.0279 -0.13707,0.0606 -0.21625,0.0991 -0.29067,0.14243 -0.47797,0.22254 -0.56227,0.23997 -0.0174,0.003 -0.0368,0.005 -0.0586,0.008 -0.0218,0.003 -0.0386,0.006 -0.0502,0.007 -0.0116,0.002 -0.0207,0.001 -0.0265,0.001 -0.14824,0 -0.2309,-0.10464 -0.24834,-0.31392 v -0.29996 c 0,-0.28195 0.0413,-0.57785 0.12557,-0.88595 0.55517,-0.43891 1.10429,-1.06674 1.64493,-1.88352 0.54064,-0.80514 0.91525,-1.54017 1.12453,-2.2058 0.14823,-0.51157 0.22183,-1.00895 0.22184,-1.49147 -10e-6,-0.35169 -0.0426,-0.65782 -0.12836,-0.91943 -0.0857,-0.26159 -0.2201,-0.46959 -0.40321,-0.62365 -0.18313,-0.15405 -0.40787,-0.23287 -0.67528,-0.23579 -0.55808,1e-5 -1.00768,0.27521 -1.34776,0.82456 -0.15405,0.2587 -0.2845,0.5235 -0.39205,0.79526 -0.10755,0.27178 -0.2187,0.60773 -0.33205,1.00594 -0.0814,0.28776 -0.18475,0.71527 -0.30974,1.28497 -0.0523,0.24417 -0.18149,0.86433 -0.38786,1.8584 -0.0349,0.16859 -0.0723,0.35334 -0.11301,0.5539 -0.0407,0.20056 -0.0717,0.35293 -0.0935,0.45902 -0.0218,0.10609 -0.0386,0.18626 -0.0502,0.23857 -0.28195,0.40694 -0.48088,0.66784 -0.59715,0.7841 -0.12789,0.13662 -0.34368,0.30718 -0.64597,0.51065 -0.003,0 -0.0972,0.0529 -0.28323,0.16044 -0.0407,0.0204 -0.0923,0.054 -0.15626,0.0991 -0.0639,0.0451 -0.11045,0.0824 -0.13952,0.11441 -0.0528,0.0528 -0.0965,0.10625 -0.13115,0.15905 -0.1013,-0.0314 -0.15877,-0.13201 -0.173,-0.30276 v -0.29996 c 0,-0.28195 0.0413,-0.57785 0.12557,-0.88595 0.55516,-0.43891 1.10289,-1.06674 1.64354,-1.88352 0.54063,-0.80514 0.91664,-1.54017 1.12592,-2.2058 0.14823,-0.51156 0.22183,-1.00895 0.22184,-1.49146 -10e-6,-0.3517 -0.0426,-0.65783 -0.12836,-0.91944 -0.0858,-0.26159 -0.2201,-0.46959 -0.40321,-0.62365 -0.18313,-0.15404 -0.40927,-0.23287 -0.67667,-0.23579 z m -0.12975,1.56541 c 0.0901,1e-5 0.13917,0.11883 0.14789,0.35717 v 0.0265 c 0,0.45926 -0.12534,1.03024 -0.37531,1.7133 -0.25288,0.68598 -0.63656,1.3423 -1.15103,1.96723 l 0.75061,-3.1085 c 0.0436,-0.18311 0.13266,-0.38855 0.26928,-0.61528 0.14532,-0.22671 0.26554,-0.34042 0.35856,-0.34043 z m 3.24244,0 c 0.0901,1e-5 0.13916,0.11883 0.14789,0.35717 v 0.0265 c -10e-6,0.45926 -0.12534,1.03024 -0.37531,1.7133 -0.25288,0.68598 -0.63656,1.3423 -1.15104,1.96723 l 0.75062,-3.1085 c 0.0436,-0.18311 0.13405,-0.38855 0.27067,-0.61528 0.14533,-0.22671 0.26415,-0.34042 0.35717,-0.34043 z m 3.9498,0.95571 c -0.19766,1e-5 -0.36171,0.0452 -0.49251,0.13673 -0.1308,0.0916 -0.20184,0.21557 -0.21346,0.37252 v 0.0879 c -10e-6,0.26741 0.0839,0.51157 0.25253,0.73247 0.16858,0.22091 0.36751,0.33067 0.59714,0.33066 h 0.053 c 0.29066,-0.29066 0.4353,-0.63294 0.4353,-1.02825 0,-0.15986 -0.0272,-0.29427 -0.0809,-0.40182 -0.0538,-0.10754 -0.12348,-0.16695 -0.21067,-0.17859 -0.11627,-0.0349 -0.22998,-0.0516 -0.34043,-0.0516 z m -19.70296,3.11687 c 0.74701,0 1.43426,0.071 2.0621,0.21346 0.34589,0.0727 0.62109,0.18377 0.82456,0.33346 0.20346,0.14969 0.30415,0.32415 0.30415,0.5218 0,0.0116 -10e-4,0.0232 -0.004,0.0363 -0.003,0.0131 -0.006,0.0312 -0.008,0.053 -0.003,0.0218 -0.005,0.0399 -0.008,0.0544 -0.11336,0.4767 -0.42089,0.85131 -0.92083,1.12453 -0.39821,0.22091 -0.92908,0.41984 -1.5947,0.59715 -0.20057,0.061 -0.46938,0.11138 -0.80364,0.15207 -0.41565,0.0494 -0.75794,0.0753 -1.02826,0.0753 -0.63074,0 -0.98605,-0.10208 -1.06453,-0.30554 -0.006,-0.0174 -0.008,-0.0536 -0.008,-0.10883 0,-0.40402 0.36042,-1.30578 1.08128,-2.70389 0.0174,0.0174 0.0381,0.0265 0.0614,0.0265 h 0.0307 c 0.23834,-0.0465 0.59749,-0.0698 1.07709,-0.0698 z m 7.19223,0.65016 c 0.012,-8.4e-4 0.0231,0 0.0349,0 0.16859,0 0.29648,0.0981 0.38368,0.29578 0.0378,0.10755 0.0572,0.23033 0.0572,0.36694 0,0.38659 -0.10859,0.76375 -0.32368,1.1329 -0.20638,0.36914 -0.48274,0.55389 -0.83154,0.55389 -0.006,0 -0.0614,-0.007 -0.16603,-0.0181 -0.23834,-0.0785 -0.35717,-0.2838 -0.35717,-0.61807 0,-0.3052 0.0594,-0.57005 0.17859,-0.79387 0.0552,-0.15986 0.1973,-0.34972 0.42693,-0.57063 0.218,-0.218 0.41746,-0.33517 0.59714,-0.3488 z"
       id="flowRoot2985"
       inkscape:export-xdpi="96"
       inkscape:export-ydpi="96"
       inkscape:export-filename="/home/rajan/mod-plugins-deploy/bolliedelayxt.lv2/modgui/background.png" />
    <g
       id="g5300"
       transform="matrix(0.8444793,0,0,0.8444793,191.13377,-33.340485)"
       inkscape:export-filename="/home/rajan/mod-plugins-deploy/bolliedelayxt.lv2/modgui/background.png"
       inkscape:export-xdpi="96"
       inkscape:export-ydpi="96"
       style="opacity:0.82900002">
      <path
         sodipodi:nodetypes="cccccccccccccccccccccccccccccccccccccccccccccccccccccccccccccccccccc"
         inkscape:connector-curvature="0"
         id="path826-3"
         d="m -143.83994,144.51111 2.09763,-1.96652 1.70431,-1.44212 2.35983,-1.83542 3.53974,-2.22872 1.31102,-2.62204 -1.70432,1.17992 5.24406,-4.85076 -5.89957,2.88424 5.89957,-4.58856 1.31101,-1.70432 4.06415,-0.1311 6.68618,-0.2622 3.93304,0.65551 4.98186,-0.91771 6.29287,-0.91771 1.57322,2.62203 -0.2622,3.14643 0.5244,3.93305 -0.1311,1.31101 c 0,0 2.425379,9.57041 3.474188,12.32354 -1.507668,3.40864 -3.408638,7.21058 -2.81868,8.3905 0,0 1.245464,3.34309 1.048816,3.14643 1.046964,2.78378 -1.071052,5.28028 -0.917713,7.8661 l -0.524411,1.57322 v 0 l -1.17991,0.5244 1.704321,2.49093 3.801944,2.09762 0.1311,3.27754 -5.506265,0.52441 -5.24406,2.22872 -4.58855,6.16178 c 0,0 -1.78907,3.47725 -2.11353,5.0532 -0.60257,0.60256 -1.68842,8.05694 -1.68842,8.05694 l -1.31101,-8.78379 -1.57322,9.1771 -0.5244,-10.22591 c -1.28626,1.48324 -2.49093,7.99719 -2.49093,7.99719 -1.04881,-2.57833 -2.09763,-4.27258 -3.14644,-7.73499 l -1.44212,-3.14644 c -0.20858,-0.10429 -0.52145,1.01586 -0.52145,1.01586 l 0.12815,-4.81781 -1.57322,8.2594 -0.78661,-8.3905 1.70432,-8.12829 c 0,0 -2.55648,7.01393 -3.53974,8.25939 -0.3933,-1.11436 1.70432,-10.22591 1.70432,-10.22591 0,0 -1.70432,2.35982 -3.01533,4.06415 -0.19666,-2.35983 2.49092,-7.07948 2.49092,-7.07948 l -1.04881,-1.96653 2.62203,-4.98186 -0.91771,-1.57322 0.26221,-3.40864 c 0,0 -0.78661,0.0655 -0.52441,-2.62202 -0.43595,0.26845 -0.78661,-0.13111 -0.78661,-0.13111 -2.29428,1.31102 -1.57322,0.52441 -1.57322,0.52441 l 1.70432,-4.32635 -2.62203,1.83542 2.22873,-4.45745 c 0,0 -3.08089,2.09762 -4.98186,2.49093 0,0 2.75313,-4.19525 5.63736,-6.81728 l -5.76846,3.53974 0.3933,-3.01533 -3.80194,-0.26221 -5.63736,1.04882 -1.83543,-0.26221 z"
         style="display:inline;fill:#000000;fill-opacity:1;fill-rule:evenodd;stroke:#000000;stroke-width:0.09177105px;stroke-linecap:butt;stroke-linejoin:miter;stroke-opacity:1" />
      <path
         sodipodi:nodetypes="cccscccccccccccccccccccccccccccccccccccccccsccccccccccccccc"
         inkscape:connector-curvature="0"
         id="path828-6"
         d="m -91.137134,122.35496 6.817281,-2.88424 4.588554,0.65551 c 0,0 -4.326355,1.31102 -3.93305,1.17991 0.393305,-0.1311 3.93305,1.31102 3.93305,1.31102 l 4.195246,0.1311 -0.91771,1.04881 5.506263,1.83542 5.375158,2.62203 5.637368,2.75314 1.179912,0.3933 -7.472784,2.75313 -4.981859,0.91771 -0.655507,1.83542 5.506263,3.53974 -5.899568,-1.57321 6.030671,5.63736 -4.588554,-1.57322 3.933047,4.71966 -3.277536,-0.65551 1.704316,4.58855 -2.490927,-0.78661 3.277537,4.32635 -3.408643,-1.17991 2.490933,4.58855 -1.966521,-1.44212 2.359826,5.76848 3.933043,8.78379 0.131103,1.70432 -4.981859,-5.63736 1.311018,5.76847 -0.393305,0.2622 -2.097628,-2.88424 0.78661,4.45745 2.097628,3.67085 -3.277543,-2.09762 -0.917709,5.24406 -1.442117,3.67084 0.131106,4.58855 -2.228731,-6.16177 -3.408639,-1.70432 -0.978599,-2.69224 -0.762754,-3.15302 c 0,0 0.327189,-1.26331 0.327189,-2.44322 0,-1.17991 -0.814556,-2.59295 -0.814556,-2.59295 0,0 2.425371,-1.62238 2.884227,-2.62202 0,0 0.917717,-4.14609 0.524408,-4.58856 0,-0.75383 -1.57322,-5.11296 -1.57322,-5.11296 l -2.359827,-4.85076 -2.753131,-2.49092 -4.457451,-3.14644 -2.622029,-2.62203 -2.49093,-4.58855 -1.179915,-1.83542 c 0.748588,-3.18357 -0.570671,-5.0744 -1.966521,-7.86609 l -3.67084,-3.53974 1.311013,-3.40864 4.981859,-1.17992 z"
         style="display:inline;fill:#000000;fill-opacity:1;fill-rule:evenodd;stroke:#000000;stroke-width:0.09177105px;stroke-linecap:butt;stroke-linejoin:miter;stroke-opacity:1" />
      <path
         inkscape:connector-curvature="0"
         id="path838-7"
         d="m -91.104357,166.96224 c -0.348166,-0.62411 -0.724333,-1.23793 -1.055014,-1.86847 -0.09625,-0.51339 -0.192516,-1.02677 -0.288778,-1.54016 0.183339,-0.84822 0.356942,-1.69904 0.491631,-2.55648 0.331538,-0.66151 1.017016,-0.9547 1.680775,-1.12907 0.617621,-0.25433 1.291126,-0.36103 1.957292,-0.34583 0.573959,0.27848 1.219806,0.37106 1.835422,0.52441 0.667973,-0.23037 1.249664,-0.65185 1.802645,-1.08159 0.8623,-0.25184 1.772247,-0.60792 2.673651,-0.31954 0.350247,0.16518 0.959473,-0.0136 1.05937,0.46282 0.250454,0.5543 0.527554,1.10086 0.761536,1.65994 0.102086,0.84101 0.232817,1.68291 0.31705,2.52338 -0.133728,0.62988 -0.221745,1.27519 -0.38402,1.89544 -0.314896,0.6092 -0.589671,1.24316 -0.930099,1.83661 -0.486209,0.58364 -1.171611,0.94175 -1.75567,1.41601 -0.462589,0.36704 -1.038924,0.54623 -1.555028,0.82489 -0.330296,0.17721 -0.728093,0.12135 -1.088863,0.19334 -0.493729,0.0596 -0.988797,-0.0717 -1.483115,-0.0958 -0.349959,-0.0507 -0.726408,-0.01 -1.02925,-0.22324 -0.459204,-0.24306 -0.94577,-0.44601 -1.387936,-0.71404 -0.540529,-0.48754 -1.081069,-0.97509 -1.621599,-1.46263 z"
         style="display:inline;fill:#000000;fill-opacity:1;fill-rule:evenodd;stroke:#000000;stroke-width:0.09177105px;stroke-linecap:butt;stroke-linejoin:miter;stroke-opacity:1" />
      <path
         sodipodi:nodetypes="ccccccccccccc"
         inkscape:connector-curvature="0"
         id="path840-5"
         d="m -94.545773,173.87785 1.110444,0.0563 2.642032,-1.20513 2.827434,-0.92703 1.39054,-0.64892 c 0,0 0.324459,-0.0927 0.556222,-0.13906 0.231752,-0.0464 1.25148,0.0927 1.25148,0.0927 1.607954,0.41407 2.221662,0.75555 3.459349,1.71457 v 0 c -4.036748,-0.21238 -7.18931,0.6938 -11.060975,1.62273 l -1.297834,0.27811 -3.800817,-1.90041 z"
         style="display:inline;fill:#000000;fill-opacity:1;fill-rule:evenodd;stroke:#000000;stroke-width:0.09177105px;stroke-linecap:butt;stroke-linejoin:miter;stroke-opacity:1" />
      <path
         sodipodi:open="true"
         d="m -103.36797,148.09535 a 2.400537,2.4243033 0 0 1 -2.39509,2.4243 2.400537,2.4243033 0 0 1 -2.40596,-2.41329 2.400537,2.4243033 0 0 1 2.38416,-2.43525 2.400537,2.4243033 0 0 1 2.41679,2.40223"
         sodipodi:end="6.2741053"
         sodipodi:start="0"
         sodipodi:ry="2.4243033"
         sodipodi:rx="2.400537"
         sodipodi:cy="148.09535"
         sodipodi:cx="-105.76851"
         sodipodi:type="arc"
         id="path4549-3"
         style="display:inline;opacity:1;fill:#c47d3d;fill-opacity:1;stroke:none;stroke-width:0.15919702;stroke-miterlimit:4;stroke-dasharray:none;stroke-opacity:1" />
      <path
         sodipodi:open="true"
         d="m -105.09944,146.98566 a 1.2290767,0.73744595 0 0 1 -1.22629,0.73744 1.2290767,0.73744595 0 0 1 -1.23186,-0.7341 1.2290767,0.73744595 0 0 1 1.2207,-0.74077 1.2290767,0.73744595 0 0 1 1.23739,0.73073"
         sodipodi:end="6.2741096"
         sodipodi:start="0"
         sodipodi:ry="0.73744595"
         sodipodi:rx="1.2290767"
         sodipodi:cy="146.98566"
         sodipodi:cx="-106.32852"
         sodipodi:type="arc"
         id="path4551-5"
         style="display:inline;opacity:0;fill:#c47d3d;fill-opacity:1;stroke:none;stroke-width:0.1835421;stroke-miterlimit:4;stroke-dasharray:none;stroke-opacity:1" />
      <path
         d="m -104.12487,148.17691 a 1.2782397,1.1963013 0 0 1 -1.27534,1.1963 1.2782397,1.1963013 0 0 1 -1.28112,-1.19087 1.2782397,1.1963013 0 0 1 1.26952,-1.2017 1.2782397,1.1963013 0 0 1 1.28689,1.18541"
         sodipodi:open="true"
         sodipodi:end="6.2741096"
         sodipodi:start="0"
         sodipodi:ry="1.1963013"
         sodipodi:rx="1.2782397"
         sodipodi:cy="148.17691"
         sodipodi:cx="-105.40311"
         sodipodi:type="arc"
         id="path4553-6"
         style="display:inline;opacity:1;fill:#000000;fill-opacity:1;stroke:none;stroke-width:0.08555148;stroke-miterlimit:4;stroke-dasharray:none;stroke-opacity:1" />
      <path
         d="m -83.016964,143.41632 a 1.7371104,2.1563187 0 0 1 -1.733169,2.15631 1.7371104,2.1563187 0 0 1 -1.741034,-2.14652 1.7371104,2.1563187 0 0 1 1.725269,-2.16606 1.7371104,2.1563187 0 0 1 1.748863,2.1367"
         sodipodi:open="true"
         sodipodi:end="6.2741096"
         sodipodi:start="0"
         sodipodi:ry="2.1563187"
         sodipodi:rx="1.7371104"
         sodipodi:cy="143.41632"
         sodipodi:cx="-84.754074"
         sodipodi:type="arc"
         id="path5162-2"
         style="display:inline;opacity:1;fill:#c47d3d;fill-opacity:1;stroke:none;stroke-width:0.33711901;stroke-miterlimit:4;stroke-dasharray:none;stroke-opacity:1" />
      <path
         d="m -83.410295,143.37439 a 1.0815873,1.1471384 0 0 1 -1.079133,1.14714 1.0815873,1.1471384 0 0 1 -1.084031,-1.14193 1.0815873,1.1471384 0 0 1 1.074215,-1.15232 1.0815873,1.1471384 0 0 1 1.088904,1.1367"
         sodipodi:open="true"
         sodipodi:end="6.2741096"
         sodipodi:start="0"
         sodipodi:ry="1.1471384"
         sodipodi:rx="1.0815873"
         sodipodi:cy="143.37439"
         sodipodi:cx="-84.491882"
         sodipodi:type="arc"
         id="path4557-9"
         style="display:inline;opacity:1;fill:#000000;fill-opacity:1;stroke:none;stroke-width:0.1835421;stroke-miterlimit:4;stroke-dasharray:none;stroke-opacity:1" />
      <path
         inkscape:export-filename="/home/rajan/mod-plugins-deploy/bolliedelayxt.lv2/modgui/background.png"
         inkscape:export-ydpi="96"
         inkscape:export-xdpi="96"
         id="flowRoot2985-1"
         d="m -88.649226,185.39805 c -0.686585,10e-6 -1.237981,0.33858 -1.656371,1.01441 -0.189529,0.31828 -0.350007,0.64404 -0.482321,0.97839 -0.132316,0.33436 -0.269055,0.74766 -0.408521,1.23755 -0.100143,0.35403 -0.227274,0.87998 -0.381044,1.58085 -0.06434,0.30038 -0.223275,1.06335 -0.477163,2.28631 -0.04294,0.20741 -0.08895,0.43469 -0.139035,0.68143 -0.05007,0.24674 -0.08821,0.43419 -0.11503,0.56471 -0.02681,0.13053 -0.04749,0.22914 -0.06176,0.29351 -0.346872,0.50063 -0.591607,0.8216 -0.734645,0.96465 -0.05856,0.0625 -0.133118,0.13029 -0.221426,0.20425 0.158851,-0.46686 0.238589,-0.93376 0.238589,-1.40061 v -0.10643 c -0.04293,-0.78313 -0.27821,-1.38874 -0.703744,-1.81429 -0.432697,-0.43268 -0.944334,-0.64881 -1.537932,-0.64881 -0.586463,0 -1.15388,0.20985 -1.700996,0.62822 -0.443647,0.33055 -0.812229,0.7794 -1.105401,1.34741 -0.07369,-0.16066 -0.174286,-0.31371 -0.303811,-0.46172 -0.30038,-0.34329 -0.689731,-0.61033 -1.168902,-0.79987 -0.919011,-0.36831 -1.772511,-0.55269 -2.559211,-0.55269 -0.0143,0 -0.0477,0.004 -0.0995,0.009 -0.0519,0.005 -0.0835,0.007 -0.0978,0.007 0.61505,-0.21098 1.10609,-0.52723 1.47442,-0.94919 0.3719,-0.42554 0.55784,-0.88955 0.55785,-1.39376 -10e-6,-0.15018 -0.0143,-0.28048 -0.0429,-0.39135 -0.16449,-0.53995 -0.51737,-0.99453 -1.05733,-1.36285 -0.55069,-0.37547 -1.14187,-0.65525 -1.7748,-0.83764 -0.43627,-0.12514 -0.92103,-0.18707 -1.45383,-0.18709 -0.87968,2e-5 -1.75064,0.15421 -2.61243,0.46174 -0.8475,0.29323 -1.4657,0.67299 -1.85549,1.14142 -0.36116,0.41482 -0.54239,0.81862 -0.54239,1.20839 0,0.2074 0.0508,0.40437 0.15276,0.59389 0.10187,0.18953 0.23545,0.35488 0.39993,0.49433 0.24674,0.20384 0.52968,0.3802 0.84793,0.53039 0.2217,0.0572 0.38219,0.0859 0.48232,0.0859 0.24316,0 0.42597,-0.0906 0.54755,-0.27292 0.0894,-0.10015 0.13388,-0.21455 0.13388,-0.34329 0,-0.13587 -0.0763,-0.24072 -0.23,-0.31582 -0.48275,-0.22885 -0.72435,-0.46415 -0.72435,-0.70374 0,-0.23601 0.18596,-0.49977 0.55785,-0.793 0.59361,-0.4613 1.44539,-0.69172 2.5575,-0.69174 0.94047,2e-5 1.64779,0.12875 2.11982,0.38621 0.64009,0.33972 0.95948,0.69402 0.95948,1.06591 0,0.0143 0,0.0271 0,0.0378 0,0.18954 -0.10174,0.40094 -0.30552,0.63338 -0.21813,0.25032 -0.46444,0.46165 -0.73979,0.63508 -0.27535,0.17344 -0.51379,0.28479 -0.71404,0.33127 -0.0679,0.018 -0.29208,0.067 -0.67112,0.14934 l -0.42912,0.0807 -0.24031,0.0755 c 0.49348,-0.95477 0.78271,-1.63662 0.86853,-2.04429 0.007,-0.0143 0.01,-0.046 0.01,-0.0961 0,-0.17878 -0.0873,-0.33933 -0.26433,-0.48059 -0.17701,-0.14125 -0.37576,-0.21112 -0.59389,-0.21112 h -0.0533 c -0.48989,0.0323 -0.86022,0.33886 -1.11053,0.92172 -0.15377,0.36475 -0.47789,1.07208 -0.97494,2.11981 -0.55785,1.20868 -0.93933,2.0493 -1.14315,2.5249 -0.2968,0.67942 -0.50978,1.24057 -0.63852,1.68039 -0.0822,0.32184 -0.12359,0.56815 -0.12359,0.7398 0,0.37905 0.14304,0.69059 0.42911,0.93375 0.45057,0.3862 1.11011,0.57844 1.97907,0.57844 0.21455,0 0.56743,-0.0175 1.05733,-0.0533 1.99536,-0.13232 3.64186,-0.45501 4.93994,-0.96637 0.68656,-0.27176 1.249195,-0.62135 1.68725,-1.05046 0.08427,-0.0825 0.163256,-0.16804 0.236872,-0.25575 0.0283,0.53146 0.171279,0.98553 0.429114,1.36114 0.296801,0.43269 0.667134,0.71076 1.110541,0.83591 0.264617,0.0643 0.522084,0.0961 0.772407,0.0961 0.606695,0 1.161528,-0.19206 1.664952,-0.57672 0.07652,0.0408 0.169045,0.0618 0.27978,0.0618 0.321833,0 0.70646,-0.15734 1.153454,-0.47203 l 0.703744,-0.55269 c -0.01429,0.12873 -0.02227,0.23687 -0.02227,0.32269 0,0.24317 0.04136,0.46731 0.12358,0.67113 0.110846,0.23602 0.220559,0.38534 0.327837,0.44971 0.08587,0.0536 0.308257,0.0966 0.669422,0.12873 h 0.199103 c 0.690162,0 1.352849,-0.1891 1.989355,-0.56814 0.400513,-0.25747 0.60076,-0.55155 0.60076,-0.88054 0,-0.0138 -10e-4,-0.0284 -0.0014,-0.0429 l 0.102977,-0.0807 c -0.01429,0.12873 -0.02227,0.23687 -0.02227,0.32269 0,0.24316 0.04135,0.4673 0.12359,0.67113 0.110843,0.23602 0.220559,0.38534 0.327837,0.44971 0.08587,0.0536 0.308243,0.0966 0.669419,0.12873 h 0.199103 c 0.690147,0 1.352838,-0.1891 1.989362,-0.56814 0.04823,-0.031 0.09325,-0.0624 0.135598,-0.0944 0.19834,-0.0767 0.409957,-0.19579 0.636805,-0.35702 0.818881,-0.5936 1.460979,-1.16576 1.925853,-1.71644 -0.182374,0.27178 -0.29995,0.67713 -0.353587,1.21353 l -0.0049,0.0533 c -0.0035,0.0394 -0.0049,0.0679 -0.0049,0.0859 0,0.47203 0.181084,0.80573 0.545829,1.00242 0.354017,0.20383 0.724336,0.30552 1.110535,0.30552 0.307528,0 0.736642,-0.0937 1.287341,-0.28322 0.226848,-0.0797 0.450435,-0.20844 0.669406,-0.38277 0.339786,0.45806 1.031019,0.6883 2.075183,0.6883 1.119261,0 2.142837,-0.22414 3.068992,-0.67112 0.325416,-0.1645 0.702034,-0.47117 1.131148,-0.92174 0.432683,-0.46487 0.648813,-0.80817 0.648823,-1.02987 -1e-5,-0.0966 -0.07947,-0.1793 -0.238592,-0.24545 -0.159139,-0.0662 -0.322832,-0.0978 -0.490899,-0.0978 -0.14662,0 -0.248342,0.0286 -0.30553,0.0859 -0.343293,0.33973 -0.726345,0.61299 -1.1483,0.82218 -0.421965,0.2092 -0.957497,0.40151 -1.608325,0.57672 -0.150176,0.0358 -0.301226,0.0549 -0.451427,0.0549 -0.225276,0 -0.414376,-0.0285 -0.568132,-0.0859 -0.153759,-0.0572 -0.23,-0.1336 -0.23,-0.22657 0,-0.0286 0.01106,-0.0635 0.0326,-0.10641 0.0214,-0.0358 0.05167,-0.0675 0.09092,-0.0961 0.03937,-0.0285 0.08858,-0.0573 0.149327,-0.0842 0.06078,-0.0268 0.121183,-0.0507 0.180238,-0.0704 0.05905,-0.0197 0.136801,-0.0402 0.235147,-0.0635 0.0983,-0.0232 0.184161,-0.0423 0.257472,-0.0566 0.07332,-0.0143 0.175,-0.0349 0.305517,-0.0635 0.13052,-0.0286 0.240298,-0.0525 0.326119,-0.0704 0.404089,-0.0966 0.755238,-0.22844 1.055618,-0.3965 0.135882,-0.093 0.22178,-0.18674 0.255758,-0.2815 0.03396,-0.0947 0.04982,-0.23944 0.04982,-0.43255 v -0.2403 c -1.1e-5,-0.13946 -0.122286,-0.23172 -0.369036,-0.27464 -0.336147,-0.0608 -0.706467,-0.11159 -1.110541,-0.15447 -0.443422,-0.0501 -0.831195,-0.10568 -1.163749,-0.1665 -0.286083,-0.0536 -0.42911,-0.11725 -0.42911,-0.18881 0,-0.0286 0.02372,-0.0572 0.07381,-0.0859 0.225284,-0.10371 0.482751,-0.15447 0.7724,-0.15448 0.05721,1e-5 0.233715,0.0128 0.526947,0.0378 0.336126,0.0143 0.537966,0.0205 0.605911,0.0205 0.132302,0 0.315103,-0.0127 0.547539,-0.0377 l 0.502927,-0.0635 c 0.193089,-0.0214 0.332981,-0.0549 0.418802,-0.0978 0.2074,-0.11085 0.344143,-0.24587 0.408522,-0.4068 0.02497,-0.10371 0.08698,-0.30552 0.187095,-0.6059 0.12872,-0.38263 0.201812,-0.60362 0.219699,-0.66083 0.05721,-0.20025 0.08575,-0.32254 0.08587,-0.36904 0,-0.0286 -0.0061,-0.0429 -0.02057,-0.0429 h -0.01231 c -0.893989,0.28607 -1.714028,0.44971 -2.461382,0.49262 -0.400523,0.0251 -0.683432,0.0504 -0.847929,0.0755 l -0.79814,0.10125 c -0.375477,0.0394 -0.658407,0.0791 -0.84793,0.11847 -0.193102,0.0465 -0.415666,0.13547 -0.665975,0.26777 -0.250319,0.13231 -0.464878,0.29609 -0.643669,0.48918 -0.189523,0.20027 -0.283218,0.44658 -0.283218,0.73979 0,0.47203 0.212984,0.83277 0.638515,1.08308 0.20741,0.13588 0.623788,0.26147 1.249584,0.37589 l 0.133877,0.0326 h -0.0099 c -0.30038,0.10728 -0.650104,0.30911 -1.047037,0.60591 -0.210972,0.15734 -0.382618,0.34164 -0.514932,0.55442 -0.0014,0.003 -0.0028,0.005 -0.0035,0.007 -0.187341,0.0159 -0.419072,0.1047 -0.696866,0.26949 -0.264623,0.14661 -0.452155,0.2197 -0.562998,0.2197 -0.175226,0 -0.262625,-0.13659 -0.262612,-0.41195 0.07505,-0.62936 0.249876,-1.31435 0.52523,-2.05458 0.30395,-0.82961 0.494617,-1.42721 0.573287,-1.79197 0.01429,-0.10014 0.02227,-0.16205 0.02227,-0.1871 0,-0.21812 -0.07307,-0.3437 -0.219699,-0.37589 -0.117981,-0.0358 -0.251609,-0.0533 -0.398216,-0.0533 -0.135896,0 -0.428254,0.0588 -0.878824,0.17679 l -0.15105,0.0635 c -0.114416,0.0429 -0.231999,0.12241 -0.353591,0.23688 -0.121543,0.11441 -0.205832,0.24159 -0.25231,0.38104 -0.168067,0.48633 -0.654397,1.15217 -1.458984,1.99967 -0.79028,0.83319 -1.391033,1.34498 -1.802264,1.5345 -0.111336,0.0542 -0.212155,0.11035 -0.3021,0.16821 -0.08194,0.0343 -0.168632,0.0746 -0.266042,0.12192 -0.357597,0.17522 -0.588027,0.27378 -0.691732,0.29522 -0.0214,0.004 -0.04528,0.006 -0.07209,0.01 -0.02681,0.004 -0.04749,0.007 -0.06176,0.009 -0.01429,0.003 -0.02549,0.001 -0.0326,0.001 -0.182375,0 -0.284068,-0.12873 -0.305524,-0.3862 v -0.36903 c 0,-0.34687 0.05081,-0.7109 0.154484,-1.08994 0.682998,-0.53997 1.358557,-1.31236 2.023686,-2.31721 0.665122,-0.99053 1.125987,-1.8948 1.383454,-2.7137 0.182364,-0.62936 0.27291,-1.24126 0.272924,-1.83489 -1.4e-5,-0.43268 -0.05241,-0.80929 -0.157915,-1.13114 -0.105436,-0.32182 -0.270783,-0.57772 -0.496052,-0.76725 -0.225298,-0.18952 -0.501787,-0.28649 -0.830768,-0.29008 -0.686578,10e-6 -1.239702,0.33857 -1.658088,1.01442 -0.189519,0.31826 -0.350007,0.64404 -0.482324,0.97837 -0.13231,0.33436 -0.269056,0.74766 -0.408504,1.23756 -0.100147,0.35402 -0.227288,0.87997 -0.381061,1.58084 -0.06434,0.30039 -0.223279,1.06335 -0.477167,2.28631 -0.04293,0.20741 -0.08895,0.4347 -0.139032,0.68144 -0.05007,0.24674 -0.08821,0.43419 -0.115026,0.56471 -0.02681,0.13051 -0.04749,0.22915 -0.06176,0.2935 -0.346876,0.50064 -0.591607,0.82162 -0.734648,0.96464 -0.157339,0.16808 -0.422816,0.37791 -0.794709,0.62824 -0.0035,0 -0.119581,0.0651 -0.348444,0.19738 -0.05007,0.0251 -0.113555,0.0664 -0.192239,0.12192 -0.07862,0.0555 -0.135882,0.10137 -0.171649,0.14075 -0.06495,0.065 -0.118721,0.13071 -0.161349,0.19567 -0.124623,-0.0386 -0.195325,-0.16241 -0.212831,-0.37247 v -0.36903 c 0,-0.34687 0.05081,-0.7109 0.154481,-1.08994 0.682988,-0.53997 1.356837,-1.31236 2.021976,-2.31722 0.665111,-0.99052 1.1277,-1.8948 1.385168,-2.71369 0.18236,-0.62935 0.272909,-1.24127 0.27292,-1.83488 -1.1e-5,-0.43268 -0.05241,-0.8093 -0.157915,-1.13114 -0.105557,-0.32182 -0.27078,-0.57772 -0.496049,-0.76725 -0.225297,-0.18951 -0.50351,-0.28649 -0.832478,-0.29008 z m -0.159628,1.92585 c 0.110844,1e-5 0.171213,0.14619 0.181941,0.43941 v 0.0326 c 0,0.565 -0.154196,1.26746 -0.461725,2.10779 -0.311108,0.84393 -0.783134,1.65138 -1.416058,2.4202 l 0.923436,-3.82425 c 0.05364,-0.22527 0.163207,-0.47802 0.331284,-0.75695 0.178785,-0.27892 0.326682,-0.41881 0.441122,-0.41882 z m 3.989032,0 c 0.11084,1e-5 0.171199,0.14619 0.181941,0.43941 v 0.0326 c -1.4e-5,0.565 -0.154203,1.26746 -0.461725,2.10779 -0.311115,0.84393 -0.783131,1.65138 -1.416079,2.4202 l 0.92346,-3.82425 c 0.05363,-0.22527 0.164911,-0.47802 0.332988,-0.75695 0.178795,-0.27892 0.324972,-0.41881 0.439415,-0.41882 z m 4.859261,1.17576 c -0.243174,2e-5 -0.444999,0.0556 -0.605918,0.16822 -0.160914,0.11269 -0.248317,0.2652 -0.262608,0.4583 v 0.10814 c -1.3e-5,0.32898 0.10322,0.62936 0.310679,0.90112 0.207396,0.27178 0.45213,0.40681 0.73463,0.40679 h 0.0652 c 0.357586,-0.35758 0.535534,-0.77867 0.535534,-1.26501 0,-0.19666 -0.03347,-0.36202 -0.09953,-0.49434 -0.06619,-0.1323 -0.151911,-0.20538 -0.259178,-0.21971 -0.143038,-0.0429 -0.28293,-0.0635 -0.418809,-0.0635 z m -24.239669,3.83455 c 0.91901,0 1.76451,0.0874 2.53691,0.26262 0.42553,0.0894 0.7641,0.22608 1.01442,0.41024 0.2503,0.18415 0.37418,0.39878 0.37418,0.64194 0,0.0143 -0.001,0.0285 -0.005,0.0447 -0.004,0.0161 -0.007,0.0384 -0.01,0.0652 -0.004,0.0268 -0.006,0.0491 -0.01,0.0669 -0.13946,0.58647 -0.5178,1.04733 -1.13286,1.38346 -0.4899,0.27178 -1.143,0.51651 -1.96188,0.73465 -0.24676,0.075 -0.57746,0.13702 -0.98868,0.18708 -0.51136,0.0608 -0.93246,0.0926 -1.26503,0.0926 -0.77597,0 -1.21309,-0.12559 -1.30964,-0.37589 -0.007,-0.0214 -0.01,-0.0659 -0.01,-0.1339 0,-0.49704 0.44341,-1.60644 1.33025,-3.32646 0.0214,0.0214 0.0469,0.0326 0.0755,0.0326 h 0.0377 c 0.29322,-0.0572 0.73506,-0.0859 1.32509,-0.0859 z m 8.848278,0.79986 c 0.01478,-0.001 0.02844,0 0.04293,0 0.207413,0 0.364749,0.12069 0.47203,0.36389 0.0465,0.13231 0.07037,0.28337 0.07037,0.45143 0,0.47561 -0.133597,0.93961 -0.398213,1.39376 -0.253902,0.45413 -0.593889,0.68142 -1.023003,0.68142 -0.0074,0 -0.07554,-0.009 -0.204264,-0.0223 -0.293218,-0.0966 -0.439409,-0.34915 -0.439409,-0.76038 0,-0.37548 0.07308,-0.70131 0.219713,-0.97666 0.06791,-0.19668 0.24273,-0.43025 0.52523,-0.70203 0.268196,-0.26819 0.513586,-0.41234 0.734638,-0.42911 z"
         style="font-style:normal;font-weight:normal;font-size:40px;line-height:125%;font-family:Sans;letter-spacing:0px;word-spacing:0px;display:inline;fill:#000000;fill-opacity:1;stroke:#000000;stroke-width:0.05492629;stroke-opacity:1"
         inkscape:connector-curvature="0" />
    </g>
  </g>
</svg>
